<svg width="574" height="370" viewBox="0 0 574 370" fill="none" xmlns="http://www.w3.org/2000/svg">
<path d="M563.836 225.995L549.853 184.969L526.505 192.926L478.814 52.9629L425.646 71.0811L425.806 71.5572L408.657 145.597L384.258 250.926L398.491 282.359L448.695 265.248L466.971 259.016L487.316 252.079L503.927 300.839L557.096 282.721L540.484 233.961L563.836 225.995ZM467.16 213.156L455.099 217.268L432.001 225.142L447.766 146.851L449.249 140.355L473.334 211.05L467.16 213.156Z" fill="#4D4D4D"/>
<path opacity="0.25" d="M540.484 233.959L557.096 282.72L523.23 268.23L469.104 73.171L449.248 140.357L440.054 178.411L408.658 145.593L425.807 71.5556L425.647 71.0796L478.814 52.9629L526.502 192.927L549.851 184.969L563.835 225.995L540.484 233.959Z" fill="#010101"/>
<path d="M362.893 232.784L354.881 191.857C348.953 161.586 337.522 139.504 320.589 125.601C303.649 111.706 282.726 107.197 257.815 112.078C232.905 116.958 215.239 128.971 204.828 148.109C194.412 167.255 192.175 192.015 198.124 222.393L206.163 263.475C212.071 293.641 223.489 315.674 240.428 329.569C247.579 335.435 255.452 339.63 264.044 342.143C275.796 345.591 288.898 345.891 303.348 343.065C310.836 341.603 317.674 339.484 323.847 336.715C338.135 330.31 348.915 320.429 356.187 307.06C366.605 287.915 368.836 263.153 362.893 232.784ZM312.878 287.718C310.138 296.111 304.342 301.173 295.49 302.907C286.325 304.704 278.878 302.13 273.133 295.18C269.217 290.446 265.869 283.419 263.092 274.098C263.092 274.09 263.092 274.083 263.092 274.083C263.086 274.069 263.086 274.054 263.078 274.034C261.792 269.713 260.632 264.894 259.596 259.587L248.349 202.13C245.714 187.039 245.706 175.389 248.32 167.179C250.936 158.972 256.723 153.984 265.679 152.237C272.51 150.894 278.402 152.048 283.352 155.685H283.36C285.045 156.929 286.623 158.453 288.092 160.272C293.874 167.425 298.348 179.09 301.508 195.249L312.393 250.848C315.458 267.034 315.62 279.319 312.878 287.718Z" fill="#4D4D4D"/>
<path opacity="0.25" d="M316.899 295.397C319.207 298.95 322.274 323.102 323.848 336.716C317.674 339.486 310.836 341.605 303.349 343.067C288.9 345.891 275.798 345.591 264.046 342.145C264.526 341.06 264.967 339.927 265.344 338.767C272.679 316.355 263.513 275.917 263.094 274.098C265.869 283.419 269.218 290.446 273.135 295.181C278.88 302.13 286.327 304.704 295.492 302.908C304.342 301.172 310.139 296.11 312.88 287.719C315.621 279.321 315.459 267.035 312.398 250.847L301.512 195.248C298.352 179.089 293.877 167.424 288.097 160.271C286.628 158.453 285.049 156.929 283.365 155.684C301.046 159.151 315.405 213.905 321.389 240.317C327.366 266.734 327.869 278.95 316.899 295.397Z" fill="#010101"/>
<path d="M175.64 70.2202L121.851 60.9756L121.767 61.4577L2.97827 195.227L0.525391 228.666L17.5632 231.596L47.0524 236.665L86.6359 243.47L90.3981 244.113L87.5666 260.609L86.2527 268.24L81.9249 293.447L116.936 299.467L135.716 302.692L144.188 253.358L167.818 257.413L174.948 215.897L151.318 211.842L175.64 70.2202ZM108.491 138.769L97.521 202.598L84.399 200.339L55.699 195.411L71.5902 176.439L75.2262 172.097L105.526 135.925L109.811 131.073L108.491 138.769Z" fill="#4D4D4D"/>
<path opacity="0.25" d="M151.318 211.843L174.948 215.898L167.818 257.414L144.188 253.359L135.715 302.692L116.936 299.466L149.942 93.4784L175.64 70.2207L151.318 211.843Z" fill="#0E0E0E"/>
<path d="M225.695 19.8458C231.063 19.8458 235.414 15.4936 235.414 10.125C235.414 4.7564 231.063 0.404297 225.695 0.404297C220.328 0.404297 215.977 4.7564 215.977 10.125C215.977 15.4936 220.328 19.8458 225.695 19.8458Z" fill="#4D4D4D"/>
<path d="M563.836 143.375C569.203 143.375 573.555 139.023 573.555 133.654C573.555 128.286 569.203 123.934 563.836 123.934C558.468 123.934 554.117 128.286 554.117 133.654C554.117 139.023 558.468 143.375 563.836 143.375Z" fill="#4D4D4D"/>
<path d="M55.7011 72.4043C61.0686 72.4043 65.4199 68.0522 65.4199 62.6836C65.4199 57.315 61.0686 52.9629 55.7011 52.9629C50.3336 52.9629 45.9824 57.315 45.9824 62.6836C45.9824 68.0522 50.3336 72.4043 55.7011 72.4043Z" fill="#4D4D4D"/>
<path d="M215.978 369.673C221.346 369.673 225.697 365.321 225.697 359.952C225.697 354.584 221.346 350.231 215.978 350.231C210.611 350.231 206.26 354.584 206.26 359.952C206.26 365.321 210.611 369.673 215.978 369.673Z" fill="#4D4D4D"/>
<path d="M508.28 43.1353C510.35 43.1353 512.028 41.4567 512.028 39.386C512.028 37.3153 510.35 35.6367 508.28 35.6367C506.21 35.6367 504.531 37.3153 504.531 39.386C504.531 41.4567 506.21 43.1353 508.28 43.1353Z" fill="#4D4D4D"/>
<path d="M221.948 101.516C224.018 101.516 225.696 99.8375 225.696 97.7668C225.696 95.6962 224.018 94.0176 221.948 94.0176C219.877 94.0176 218.199 95.6962 218.199 97.7668C218.199 99.8375 219.877 101.516 221.948 101.516Z" fill="#4D4D4D"/>
<path d="M109.811 50.7505C111.881 50.7505 113.559 49.0719 113.559 47.0012C113.559 44.9306 111.881 43.252 109.811 43.252C107.741 43.252 106.062 44.9306 106.062 47.0012C106.062 49.0719 107.741 50.7505 109.811 50.7505Z" fill="#4D4D4D"/>
</svg>
