<svg version="1.1" id="Layer_1" xmlns="http://www.w3.org/2000/svg" xmlns:xlink="http://www.w3.org/1999/xlink" x="0px" y="0px"
	 width="100%" viewBox="0 0 768 752" enable-background="new 0 0 768 752" xml:space="preserve">
<path fill="#000000" opacity="1.000000" stroke="none" 
	d="
M250.819595,686.166748 
	C246.944305,684.409119 244.221313,681.802185 241.455826,679.094482 
	C220.407150,658.486023 199.013855,638.223389 178.224060,617.358704 
	C164.888443,603.975037 150.602219,591.431946 138.872757,576.557068 
	C133.326965,569.524109 128.555573,561.921387 124.548393,553.644531 
	C113.532585,530.891296 113.469063,507.080170 116.362640,483.048462 
	C117.294769,475.306946 118.635254,467.047852 121.467972,459.932190 
	C124.102257,453.314911 125.681923,446.241486 128.979340,439.687714 
	C131.488327,434.700989 133.748520,428.969879 136.137268,423.759003 
	C138.356216,418.918488 139.293991,412.995972 143.885529,409.285919 
	C144.504745,408.785583 145.051392,408.052032 145.344284,407.312653 
	C149.733978,396.231232 157.503876,387.305023 163.885880,377.469330 
	C170.585236,367.144562 179.076813,358.319672 186.051132,348.271149 
	C189.422134,343.414246 193.507095,338.918304 197.893082,334.948700 
	C200.716660,332.393188 204.581985,333.019043 207.369690,335.900574 
	C223.433701,352.505219 239.431229,369.174164 255.447006,385.825439 
	C260.016663,390.576385 259.765503,392.524841 255.509384,397.405090 
	C251.381897,402.137878 248.088699,407.598572 243.958542,412.328705 
	C236.986923,420.312927 232.080978,429.704163 226.035370,438.304199 
	C222.976562,442.655457 219.707672,447.449005 218.356842,452.989624 
	C217.349915,457.119568 214.525940,460.652313 212.552551,464.114899 
	C209.224091,469.955200 209.321381,477.046417 204.814545,482.232758 
	C203.827789,483.368256 203.501511,485.314240 203.384430,486.924316 
	C203.043686,491.611084 201.998718,496.109802 200.742020,500.626617 
	C198.366531,509.164673 201.529739,518.473633 208.205765,523.355408 
	C209.111862,524.018005 210.252365,524.777832 211.286667,524.781250 
	C219.550278,524.808533 227.666046,525.402771 235.875153,522.223083 
	C242.289139,519.738708 248.944260,517.505188 255.264038,514.834351 
	C264.481323,510.939087 273.791290,507.133850 282.542542,502.074219 
	C291.984100,496.615417 301.232971,490.851776 310.075989,484.544495 
	C321.482208,476.409027 332.847961,468.164490 342.809052,458.156281 
	C352.759644,448.158539 363.017090,438.452423 374.007324,429.588531 
	C380.841370,424.076782 386.284027,416.860504 394.002655,412.523285 
	C401.097504,408.536591 407.919495,405.654327 417.231384,407.159485 
	C430.655731,409.329315 438.515472,417.961090 447.009460,426.448273 
	C467.507233,446.929626 487.833893,467.582092 508.261780,488.133514 
	C517.277771,497.203979 526.841919,505.779572 535.315979,515.326538 
	C546.761292,528.220947 549.900208,544.144592 538.174805,559.522095 
	C525.891724,575.630798 511.623871,589.964539 497.720520,604.642273 
	C487.130157,615.822510 476.533081,627.030396 464.709259,636.831421 
	C454.817413,645.031006 445.040070,653.464722 434.055084,660.363586 
	C428.232391,664.020325 423.172089,668.910522 416.909088,671.983643 
	C408.051880,676.329651 399.868134,681.837891 390.626373,685.655457 
	C384.739624,688.087158 378.596313,690.116943 372.760712,692.867432 
	C366.433044,695.849915 359.217651,697.032654 352.403992,699.041443 
	C346.549774,700.767456 340.402954,701.713440 334.391174,702.898621 
	C317.255249,706.276978 300.194427,706.134705 283.007416,701.599854 
	C272.722687,698.886169 263.453217,694.650452 254.524185,689.243591 
	C253.267731,688.482727 252.225143,687.368652 250.819595,686.166748 
z"/>
<path fill="#000000" opacity="1.000000" stroke="none" 
	d="
M702.623047,229.615875 
	C706.847900,238.292175 709.047974,247.299362 712.171326,255.974045 
	C713.487976,259.631042 713.820496,263.466125 713.919495,267.289520 
	C714.152344,276.279907 714.426819,285.271362 713.437805,294.253540 
	C713.121582,297.125610 712.493835,299.793213 711.179443,302.358337 
	C710.504578,303.675354 709.699585,305.150696 709.702026,306.553192 
	C709.717468,315.559784 706.831543,323.853455 703.798645,332.136108 
	C701.193665,339.250366 698.403381,346.280334 695.481079,353.277161 
	C692.089966,361.396271 687.895203,369.071411 684.055359,376.945099 
	C680.503296,384.228943 676.220032,391.069855 671.769897,397.774994 
	C666.030151,406.423401 659.948120,414.868530 653.607117,423.087677 
	C646.528748,432.262726 639.062256,441.143036 631.616760,450.027618 
	C629.435120,452.630920 624.900269,451.876312 621.604004,448.091675 
	C615.239502,440.784271 607.962830,434.414459 601.078430,427.652985 
	C591.821411,418.561310 583.135254,408.874481 573.151855,400.526031 
	C570.124268,397.994293 569.701599,393.564911 572.338196,390.756500 
	C583.507324,378.859528 592.273987,365.234711 601.209351,351.672577 
	C608.227478,341.020355 614.303650,329.791016 618.819885,318.072388 
	C623.599060,305.671295 629.348206,293.230835 629.877319,279.559204 
	C630.323303,268.037628 623.657593,257.764801 609.409607,260.781555 
	C594.686279,263.898956 580.109009,267.131897 566.256165,273.601105 
	C558.070374,277.423828 549.887085,281.246124 542.052063,285.674713 
	C532.865662,290.867218 524.149658,296.841553 515.720703,303.268158 
	C508.488831,308.782013 500.957458,313.869843 494.221771,320.047302 
	C480.163971,332.940033 465.916840,345.626038 451.815125,358.471191 
	C445.827972,363.924896 440.440491,370.319366 433.315735,374.115173 
	C427.216644,377.364471 420.752411,379.268768 412.944946,378.365875 
	C400.523895,376.929443 392.425140,369.832611 384.409973,361.802063 
	C356.640381,333.979095 328.900970,306.125916 301.147614,278.286682 
	C298.561371,275.692413 295.846985,273.216339 293.383484,270.511108 
	C287.078613,263.587646 283.023590,255.676590 282.671753,246.071442 
	C282.407837,238.867111 285.525085,232.644379 289.216034,227.148865 
	C298.029144,214.026871 309.737305,203.321716 320.627991,191.957443 
	C329.554291,182.643005 338.256561,173.097992 347.487823,164.095825 
	C357.787567,154.051712 368.536163,144.531342 380.149506,135.898315 
	C388.363586,129.792175 396.658630,123.793404 405.106110,118.053513 
	C411.787354,113.513763 419.068420,109.812065 426.261078,106.081352 
	C434.743347,101.681732 443.270844,97.306961 452.055969,93.573845 
	C458.729614,90.737968 465.691895,88.177010 472.779572,86.799820 
	C490.269623,83.401367 507.852631,80.683754 525.855957,81.745575 
	C536.708008,82.385612 546.578918,86.251366 556.696777,89.378853 
	C578.325317,96.064369 592.524719,112.784782 607.818665,127.896240 
	C631.116699,150.916214 654.149048,174.204880 677.367737,197.305466 
	C687.054688,206.943100 695.768555,217.303436 702.623047,229.615875 
z"/>
</svg>