<svg width="100%" height="100%" viewBox="0 0 110 120" fill="none" xmlns="http://www.w3.org/2000/svg">
<path d="M48.048 80.0659C43.1958 80.0659 38.3368 80.0591 33.4847 80.0659C31.6866 80.0727 30.7327 80.9033 30.1836 82.3874C29.01 85.5938 27.9051 88.8275 26.7727 92.0475C26.0727 94.0354 25.4482 96.0505 24.6315 97.9907C24.2677 98.8621 23.5677 99.6109 22.9363 100.339C22.4422 100.904 21.7696 101.129 20.9666 101.129C14.8586 101.102 8.74363 101.115 2.63557 101.115C1.26297 101.115 0.267841 99.8016 0.439416 98.4196C0.851195 95.2336 2.2032 92.3403 3.26697 89.3585C4.09053 87.0575 4.92781 84.7565 5.77882 82.4691C7.12397 78.8746 8.4897 75.2937 9.83485 71.6992C11.1251 68.2613 12.381 64.8098 13.6781 61.3787C14.9958 57.8931 16.3547 54.428 17.6792 50.9424C18.7705 48.0559 19.8136 45.149 20.9117 42.2694C22.202 38.8655 23.5402 35.4684 24.8442 32.0714C25.9423 29.2121 27.0061 26.3393 28.1041 23.4868C29.0718 20.9748 30.0807 18.4695 31.0415 15.9575C32.016 13.4114 32.9357 10.8448 33.9171 8.30556C34.6651 6.37216 35.4132 4.42515 36.2985 2.54621C37.0672 0.90555 38.2819 -0.0203026 40.334 0.0273516C45.6116 0.149891 50.903 0.156699 56.1806 0.0273516C58.5483 -0.0271103 60.0376 1.05532 60.9161 2.96829C62.0004 5.33739 62.8171 7.82221 63.7574 10.2594C64.375 11.866 65.0064 13.459 65.631 15.0656C66.482 17.2714 67.333 19.4771 68.184 21.6828C69.0487 23.9361 69.9203 26.1895 70.7851 28.4428C71.6498 30.703 72.4939 32.97 73.3518 35.2302C74.292 37.6946 75.2323 40.159 76.1794 42.6234C77.1676 45.1899 78.1696 47.7496 79.1648 50.3161C80.0158 52.515 80.8599 54.7207 81.7041 56.9196C82.6923 59.5134 83.6738 62.1139 84.662 64.7077C85.4924 66.8793 86.3435 69.051 87.1807 71.2227C88.1621 73.762 89.1436 76.3012 90.1181 78.8405C90.9622 81.0462 91.7995 83.2519 92.6437 85.4577C93.5153 87.7451 94.4006 90.0257 95.2722 92.313C95.7801 93.6406 96.4321 94.9272 96.7409 96.2956C96.9948 97.412 96.9674 98.6374 96.8027 99.7743C96.6585 100.741 95.9036 101.177 94.8055 101.17C88.5808 101.122 82.3561 101.149 76.1313 101.136C74.8754 101.136 73.9695 100.38 73.3724 99.4339C72.5489 98.1337 71.8557 96.7245 71.238 95.3084C69.6389 91.6459 68.1154 87.9493 66.5437 84.2731C66.1182 83.286 65.6996 82.2853 65.1643 81.3594C64.6152 80.4199 63.6956 80.0727 62.5975 80.0795C57.7522 80.0727 52.9001 80.0659 48.048 80.0659ZM48.1715 61.651C50.5667 61.651 52.9619 61.651 55.3639 61.651C56.8395 61.651 57.6218 60.9634 57.4914 59.4998C57.3954 58.3765 57.0522 57.26 56.7022 56.1844C56.1257 54.4212 55.4463 52.692 54.808 50.9492C54.0668 48.9478 53.3187 46.9531 52.5775 44.9516C51.9462 43.2633 51.3353 41.5682 50.6696 39.8935C50.2647 38.8655 49.8461 37.8375 49.3039 36.8776C48.8029 35.9926 47.9656 35.9518 47.3823 36.7074C47.0666 37.1227 46.8264 37.6061 46.6273 38.0894C46.2018 39.1174 45.8381 40.1658 45.4332 41.2006C44.4655 43.7126 43.4772 46.2179 42.5301 48.7367C41.6311 51.1262 40.7183 53.5158 39.9291 55.9393C39.5173 57.1987 39.2565 58.5262 39.1192 59.8401C38.9957 61.0315 39.7026 61.6374 40.9036 61.6374C43.3194 61.651 45.7489 61.651 48.1715 61.651Z" fill="#121113"/>
<path d="M110 68.3566C110 77.901 110.014 87.4454 109.98 96.9967C109.98 97.7932 109.815 98.6374 109.513 99.3726C108.751 101.231 105.917 101.687 104.434 100.292C103.309 99.2228 102.643 97.909 102.115 96.4929C101.469 94.7502 100.838 93.0006 100.186 91.2578C99.3419 88.9908 98.4909 86.7306 97.6399 84.4705C96.8987 82.503 96.13 80.5356 95.3957 78.5682C94.5309 76.2535 93.6868 73.9253 92.8221 71.6107C92.0054 69.4254 91.1612 67.2537 90.3239 65.0752C89.569 63.1078 88.8004 61.154 88.0591 59.1797C87.215 56.9468 86.3983 54.7002 85.561 52.4673C84.7992 50.4454 84.0306 48.4235 83.2482 46.4016C82.4933 44.441 81.6628 42.5008 80.9697 40.5129C80.4138 38.9131 81.1344 36.6733 83.1521 36.1355C83.8247 35.9585 84.5384 35.8564 85.2385 35.8564C92.4377 35.836 99.6302 35.87 106.829 35.8156C108.326 35.8019 109.527 36.8231 109.705 38.0825C109.815 38.8586 109.986 39.6347 109.986 40.4108C110 49.717 109.993 59.0368 110 68.3566Z" fill="#121113"/>
<path d="M105.271 11.444C105.539 17.9113 99.8085 22.9286 93.5563 22.8469C87.613 22.772 81.999 17.9113 82.1294 11.1376C82.2461 5.2353 87.5237 0.0273774 93.8446 0.0750315C99.9526 0.122686 105.587 5.24891 105.271 11.444Z" fill="#121113"/>
<path d="M97.7907 119.857C94.6406 119.864 93.2543 118.455 93.117 115.466C93.0004 112.954 94.9495 110.81 97.8113 110.816C100.577 110.816 102.533 113.158 102.471 115.473C102.403 118.257 100.769 119.85 97.7907 119.857ZM99.781 115.582C99.7535 115.092 99.7467 114.779 99.7192 114.472C99.5888 113.083 98.1407 112.301 96.878 112.94C95.6769 113.546 95.2926 115.153 95.8897 116.773C96.1985 117.597 96.6721 118.08 97.5917 118.087C98.6555 118.094 99.28 117.788 99.5957 116.909C99.7604 116.44 99.7398 115.909 99.781 115.582Z" fill="#121113"/>
<path d="M77.0235 117.454C77.0647 117.658 77.1059 117.794 77.1196 117.931C77.2157 119.313 76.598 119.987 75.198 119.973C74.4224 119.966 73.6469 119.816 72.8783 119.871C71.2449 119.98 69.8311 118.251 69.4948 116.903C69.0487 115.105 69.3576 113.54 70.4694 112.103C71.0596 111.341 71.842 110.898 72.8645 110.878C74.3813 110.851 75.8911 110.789 76.8588 112.287C77.5382 113.335 77.8539 114.479 77.7441 115.705C77.7235 115.929 77.2157 116.276 76.9206 116.29C75.4382 116.344 73.9558 116.304 72.4665 116.304C72.2331 116.304 72.0067 116.344 71.7459 116.372C72.4665 118.394 74.0313 118.707 77.0235 117.454ZM75.3146 114.35C75.294 113.472 74.7587 112.791 73.9969 112.661C72.892 112.478 72.3086 112.879 71.6978 114.35C72.9195 114.35 74.0862 114.35 75.3146 114.35Z" fill="#121113"/>
<path d="M5.68264 114.152C5.71009 113.315 5.20909 112.634 4.33749 112.682C3.47962 112.723 2.63547 112.981 1.79133 113.158C1.56485 113.206 1.34523 113.294 1.12562 113.363C1.07071 113.213 1.0364 113.158 1.02953 113.104C0.864822 111.347 1.15307 110.953 2.95803 110.932C4.12474 110.919 5.32577 111.014 6.46502 111.279C7.33662 111.484 7.7484 112.328 7.86507 113.179C8.00919 114.22 8.0641 115.276 8.12586 116.331C8.16704 117.059 8.16704 117.788 8.18077 118.516C8.21508 119.843 8.21508 119.844 6.83562 119.837C6.0052 119.83 6.0052 119.83 5.6895 119.061C4.65319 119.932 3.47276 120.177 2.17565 119.871C0.926589 119.578 -0.0205038 118.598 8.52127e-05 117.461C0.0275372 116.12 0.645206 115.024 2.08643 114.683C3.25314 114.397 4.47475 114.322 5.68264 114.152ZM2.18938 117.202C2.51194 117.563 2.69038 117.903 2.9649 118.033C4.41985 118.734 5.54538 117.597 5.73068 116.317C5.75127 116.161 5.37381 115.786 5.19537 115.793C4.5228 115.827 3.81591 115.888 3.19824 116.126C2.82077 116.269 2.58743 116.76 2.18938 117.202Z" fill="#121113"/>
<path d="M40.7251 114.159C40.7869 113.227 40.3683 112.723 39.4349 112.655C38.5153 112.593 37.6368 112.682 36.8476 113.227C36.7034 113.322 36.4838 113.301 36.2985 113.335C36.2093 112.879 36.072 112.484 36.072 112.083C36.072 111.838 36.1956 111.484 36.3809 111.361C37.2319 110.776 40.9585 110.674 41.8438 111.341C42.6742 111.96 43.0517 112.818 43.1066 113.689C43.2301 115.684 43.1478 117.692 43.1478 119.769C42.4752 119.769 41.8369 119.769 41.1575 119.769C41.1026 119.517 41.0477 119.279 40.9722 118.918C40.7595 119.081 40.581 119.211 40.4094 119.36C39.1261 120.477 36.2573 120.096 35.523 118.611C34.6857 116.923 35.3789 115.16 37.2182 114.677C38.3231 114.384 39.4967 114.329 40.7251 114.159ZM40.9516 116.624C40.8693 115.902 40.5673 115.705 40.0388 115.786C39.4829 115.868 38.8859 115.895 38.3849 116.113C38.0623 116.256 37.7741 116.671 37.6711 117.025C37.5888 117.311 37.7741 117.944 37.9182 117.965C38.5564 118.067 39.2976 118.189 39.8604 117.951C40.334 117.754 40.5947 117.08 40.9516 116.624Z" fill="#121113"/>
<path d="M52.5362 111.769C53.799 110.776 55.604 110.571 56.7981 111.218C57.7658 111.749 58.1364 112.682 58.1982 113.648C58.308 115.48 58.2188 117.325 58.2462 119.163C58.2531 119.7 58.0129 119.837 57.5256 119.83C55.4461 119.796 55.8304 120.054 55.7961 118.23C55.7755 117.039 55.8373 115.847 55.7618 114.663C55.7275 114.125 55.5834 113.519 55.2745 113.097C54.7941 112.437 53.6686 112.511 53.147 113.254C52.797 113.751 52.5225 114.404 52.4744 115.003C52.3715 116.358 52.4195 117.719 52.4401 119.074C52.447 119.598 52.2891 119.871 51.7126 119.837C51.1773 119.803 50.642 119.83 49.9832 119.83C49.9832 119.04 49.9832 118.346 49.9832 117.645C49.9832 115.779 49.9626 113.907 50.0038 112.042C50.0106 111.681 50.1342 111.109 50.3744 111C51.1018 110.66 52.0627 110.987 52.3784 111.511C52.4195 111.579 52.4676 111.654 52.5362 111.769Z" fill="#121113"/>
<path d="M9.32684 112.627C9.05232 111.102 9.05232 111.102 10.7681 110.878C10.9328 110.054 11.022 109.224 11.2622 108.434C11.5916 107.338 12.4564 106.882 13.5682 106.834C13.5956 106.834 13.6231 106.834 13.6505 106.834C15.6133 106.888 15.7643 106.514 15.3525 108.727C14.7623 108.876 14.0486 108.863 13.678 109.21C13.3486 109.516 13.4035 110.224 13.2731 110.803C13.6093 110.871 13.8015 110.932 13.9868 110.939C15.5653 110.987 15.5722 110.994 15.3251 112.614C15.0025 112.695 14.6525 112.9 14.3506 112.838C13.3623 112.648 13.3554 113.213 13.3623 113.907C13.3829 115.636 13.3554 117.359 13.376 119.088C13.3829 119.619 13.2387 119.878 12.6554 119.83C12.1201 119.789 11.5848 119.823 10.9122 119.823C10.9122 118.816 10.9122 117.89 10.9122 116.964C10.9122 115.916 10.8573 114.867 10.9328 113.826C10.9945 112.981 10.6514 112.695 9.86902 112.709C9.69744 112.716 9.50528 112.655 9.32684 112.627Z" fill="#121113"/>
<path d="M64.2446 116.923C64.876 115.071 65.48 113.288 66.1045 111.518C66.2829 111.007 68.0879 110.646 68.4173 111.062C68.5409 111.218 68.5409 111.558 68.4654 111.776C67.5732 114.248 66.6604 116.719 65.7339 119.176C65.5829 119.585 65.329 119.85 64.7937 119.844C62.1034 119.796 62.872 120.136 61.9798 117.822C61.2249 115.854 60.4837 113.887 59.7151 111.926C59.4405 111.218 59.5915 110.959 60.3808 110.946C60.669 110.939 60.9573 110.973 61.2386 110.939C61.9249 110.85 62.1789 111.245 62.3573 111.817C62.824 113.301 63.325 114.779 63.826 116.256C63.9015 116.474 64.0799 116.664 64.2446 116.923Z" fill="#121113"/>
<path d="M79.1441 117.971C80.1941 118.019 81.0932 118.128 81.9785 118.06C82.2805 118.039 82.802 117.556 82.7815 117.318C82.754 116.998 82.3559 116.617 82.0265 116.433C81.4912 116.14 80.8598 116.031 80.3039 115.772C79.048 115.187 78.6568 114.465 78.8146 113.172C78.9313 112.178 79.899 111.075 80.9559 110.966C82.054 110.857 83.1795 110.898 84.2844 110.966C84.9021 111 85.1423 111.592 84.9158 112.355C84.758 112.879 84.4766 113.029 83.8933 112.784C83.4746 112.607 82.9462 112.675 82.4589 112.661C81.951 112.648 81.5667 112.838 81.5049 113.397C81.4363 113.982 81.9099 114.139 82.3216 114.302C82.9393 114.547 83.605 114.697 84.1952 115.003C85.1972 115.521 85.5884 116.651 85.307 117.924C85.1149 118.768 84.0374 119.775 83.1521 119.823C82.0403 119.877 80.9285 119.877 79.8166 119.837C78.9176 119.803 78.7803 119.551 79.0205 118.638C79.0892 118.359 79.1235 118.087 79.1441 117.971Z" fill="#121113"/>
<path d="M90.1387 110.932C90.5573 110.932 90.8112 110.925 91.0583 110.932C92.1632 110.953 92.4721 111.32 92.1564 112.375C92.1015 112.559 91.6554 112.757 91.4015 112.743C90.3171 112.675 90.1593 112.791 90.1593 113.887C90.1593 114.819 90.1593 115.759 90.1661 116.691C90.173 117.76 90.6328 118.264 91.5593 118.08C92.3554 117.924 92.4309 118.387 92.4652 119.013C92.4995 119.66 92.2662 119.891 91.6417 119.864C91.0789 119.837 90.5161 119.891 89.9602 119.85C88.5602 119.741 87.7366 118.85 87.7229 117.434C87.7092 115.936 87.7229 114.445 87.7229 112.947C87.1327 112.838 86.6111 112.736 86.1101 112.648C85.8356 111.102 85.8356 111.102 87.6131 110.871C87.7092 110.34 87.62 109.577 87.9357 109.319C88.4916 108.883 89.2945 108.76 90.1387 108.454C90.1387 109.353 90.1387 110.074 90.1387 110.932Z" fill="#121113"/>
<path d="M33.8484 112.954C31.913 112.552 31.165 112.75 30.513 113.805C29.9639 114.697 30.0394 116.555 30.664 117.331C31.3022 118.135 32.5856 118.312 34.2602 117.733C34.2602 118.393 34.2876 118.986 34.2327 119.571C34.2259 119.68 33.8827 119.83 33.6974 119.83C32.6748 119.857 31.6385 119.912 30.6228 119.823C29.0649 119.687 28.2482 118.53 27.8501 117.257C27.2668 115.384 27.404 113.499 28.8659 111.96C29.5178 111.273 30.314 110.837 31.3228 110.878C32.0091 110.905 32.6885 110.871 33.3748 110.912C34.1641 110.959 34.3563 111.279 34.1229 112.028C34.02 112.314 33.9445 112.614 33.8484 112.954Z" fill="#121113"/>
<path d="M19.0656 112.103C19.2165 111.967 19.3813 111.797 19.5528 111.654C19.8273 111.422 20.0881 111.055 20.397 111.007C20.9597 110.925 21.8451 110.823 22.051 111.116C22.3461 111.531 22.1676 112.287 22.1333 112.9C22.1264 113.022 21.8519 113.226 21.7009 113.226C19.8891 113.254 19.2783 113.832 19.2303 115.664C19.196 116.821 19.2028 117.978 19.2234 119.136C19.2303 119.633 19.0793 119.85 18.5508 119.844C16.3478 119.81 16.8008 120.021 16.7733 118.203C16.7459 116.058 16.7596 113.907 16.7802 111.763C16.7802 111.511 16.9174 111.048 17.0067 111.041C17.6106 111 18.2351 111.021 18.8322 111.13C18.9489 111.143 18.9695 111.667 19.0656 112.103Z" fill="#121113"/>
<path d="M104.146 119.823C104.146 116.943 104.139 114.2 104.167 111.456C104.167 111.279 104.482 111.102 104.668 110.946C104.716 110.905 104.832 110.939 104.922 110.939C106.177 110.905 106.177 110.905 106.349 112.164C106.795 111.776 107.152 111.32 107.626 111.095C108.079 110.878 108.648 110.905 109.238 110.81C109.238 111.688 109.238 112.43 109.238 113.179C108.758 113.179 108.339 113.104 107.962 113.192C106.843 113.458 106.685 114.438 106.617 115.33C106.521 116.569 106.562 117.822 106.596 119.067C106.61 119.666 106.397 119.884 105.8 119.837C105.292 119.796 104.784 119.823 104.146 119.823Z" fill="#121113"/>
<path d="M25.997 115.548C25.997 116.705 25.9764 117.869 26.0039 119.027C26.0176 119.612 25.8117 119.823 25.2215 119.837C23.3753 119.898 23.3616 119.898 23.3616 118.067C23.3547 116.086 23.3547 114.105 23.3547 112.124C23.3547 111 23.4645 110.925 24.9401 110.939C25.8666 110.946 25.9901 111.082 25.9901 112.144C25.9901 113.274 25.9901 114.411 25.9901 115.541C25.9901 115.548 25.9901 115.548 25.997 115.548Z" fill="#121113"/>
<path d="M47.6223 119.673C47.5193 119.748 47.5056 119.782 47.4781 119.782C45.2202 120.061 45.2133 120.061 45.2133 117.815C45.2133 115.834 45.2339 113.86 45.2065 111.879C45.1928 111.205 45.3849 110.898 46.1193 110.925C47.8076 110.994 47.6566 110.653 47.6634 112.464C47.6703 114.581 47.6634 116.705 47.6634 118.822C47.6634 119.136 47.636 119.442 47.6223 119.673Z" fill="#121113"/>
<path d="M46.4626 110.299C45.6459 110.306 44.9185 109.646 44.9047 108.876C44.891 108.141 45.6391 107.467 46.4558 107.467C47.2999 107.467 47.9244 108.039 47.9519 108.829C47.9793 109.632 47.3068 110.292 46.4626 110.299Z" fill="#121113"/>
<path d="M24.7412 107.481C25.7021 107.494 26.1138 107.923 26.0864 108.897C26.0658 109.904 25.6746 110.299 24.7069 110.292C23.8559 110.286 23.2657 109.721 23.2657 108.904C23.2588 107.944 23.753 107.474 24.7412 107.481Z" fill="#121113"/>
</svg>
