<svg width="100%" height="100%" viewBox="0 0 124 33" fill="none" xmlns="http://www.w3.org/2000/svg">
<path d="M0 16.5C0 7.3873 7.4258 0 16.586 0V0C25.7462 0 33.172 7.3873 33.172 16.5V16.5C33.172 25.6127 25.7462 33 16.586 33V33C7.4258 33 0 25.6127 0 16.5V16.5Z" fill="white"/>
<path d="M24.0506 14.4557C24.3761 12.1083 22.6401 10.9073 20.253 10.0338L21.0125 6.86757L19.1137 6.43085L18.3542 9.48792C17.8659 9.37874 17.3234 9.26956 16.8352 9.10579L17.5947 5.99412L15.6959 5.50281L14.9364 8.66906C14.5024 8.55988 11.0845 7.68643 11.0845 7.68643L10.5962 9.70628C10.5962 9.70628 12.0068 10.0338 11.9525 10.0338C12.7121 10.2522 12.8748 10.7435 12.8206 11.1256L10.7047 19.7509C10.5962 19.9693 10.3792 20.3514 9.83672 20.1877C9.83672 20.2423 8.42618 19.8601 8.42618 19.8601L7.50391 22.0437C7.50391 22.0437 10.9218 22.9172 11.3558 23.0264L10.542 26.1926L12.4408 26.6839L13.2003 23.5177C13.7428 23.6815 14.2311 23.7906 14.7194 23.8998L13.9598 27.0115L15.8586 27.5028L16.6724 24.3366C19.9275 24.937 22.3688 24.7187 23.3996 21.7708C24.2134 19.3688 23.3454 18.004 21.6636 17.1306C22.8571 17.0214 23.7794 16.2026 24.0506 14.4557ZM19.7105 20.6244C19.1137 23.0264 15.1534 21.7162 13.8513 21.3887L14.8821 17.1852C16.1842 17.5127 20.3073 18.1132 19.7105 20.6244ZM20.3073 14.4557C19.7648 16.6393 16.4554 15.5475 15.3704 15.2745L16.2927 11.4532C17.3777 11.6715 20.8498 12.1629 20.3073 14.4557Z" fill="#121113"/>
<path fill-rule="evenodd" clip-rule="evenodd" d="M45.6948 6.33276C45.6948 6.3576 45.0377 9.6215 44.2347 13.5857C43.4316 17.55 42.7299 21.3044 42.6753 21.9289C42.4421 24.601 43.8463 26.079 46.8099 26.2802C50.5874 26.5365 53.764 24.7709 55.3832 21.5149C57.2788 17.7031 56.7481 13.6936 54.1931 12.5222C53.3498 12.1356 51.5535 12.1194 50.5116 12.4892C50.0893 12.639 49.3792 13.0349 48.9334 13.3691C48.4876 13.7032 48.1229 13.9515 48.1229 13.9208C48.1229 13.8901 48.479 12.1601 48.9141 10.0764L49.7055 6.28772H47.7001C46.5972 6.28772 45.6948 6.30808 45.6948 6.33276ZM62.4877 6.6809C61.6973 6.95531 61.395 7.21417 61.1286 7.84538C60.7367 8.77375 60.8442 9.45945 61.4805 10.0895C62.0291 10.6327 62.0859 10.651 63.0261 10.5837C63.849 10.5247 64.0797 10.4367 64.4975 10.023C65.3864 9.14289 65.2897 7.34272 64.3279 6.86363C63.6166 6.5094 63.123 6.46035 62.4877 6.6809ZM107.45 6.60108C106.673 6.78076 106.25 7.12104 105.89 7.85579C105.467 8.71957 105.586 9.51652 106.235 10.1586C106.622 10.542 106.83 10.6154 107.526 10.6154C108.47 10.6154 109.147 10.3266 109.518 9.76544C110.599 8.13133 109.317 6.16911 107.45 6.60108ZM70.6233 9.13824C69.6885 9.36344 68.8762 9.6183 68.8182 9.70469C68.7603 9.79092 68.6245 10.4245 68.5163 11.1126L68.3198 12.3637L67.4143 12.4113L66.5088 12.4587L66.3205 13.4204C66.2169 13.9494 66.0882 14.6166 66.0347 14.9031L65.937 15.424H66.8342C67.6126 15.424 67.7202 15.4612 67.6477 15.7045C67.2976 16.8783 66.3862 22.1504 66.3659 23.1196C66.3353 24.5823 66.7213 25.3418 67.7664 25.8742C68.5288 26.2625 70.4572 26.4352 71.5136 26.2095L72.1611 26.0713L72.4138 24.5544L72.6665 23.0376L71.8492 22.9877C70.7703 22.9222 70.4614 22.6305 70.4614 21.6777C70.4614 21.0425 71.2609 16.5713 71.5295 15.7045C71.6036 15.4652 71.8252 15.424 73.0402 15.424H74.4639L74.729 14.1016C74.8749 13.3744 74.994 12.6892 74.994 12.5789C74.9939 12.4337 74.5979 12.3786 73.5542 12.3786H72.1146L72.2483 11.7775C72.3218 11.447 72.4874 10.6175 72.6163 9.93422C72.8923 8.47113 73.0807 8.54647 70.6233 9.13824ZM81.6508 12.4712C78.5931 13.2855 76.1391 15.8036 75.4748 18.8083C75.1902 20.0957 75.3345 22.3669 75.7607 23.3094C76.2445 24.3795 77.3457 25.4068 78.4892 25.8549C79.7206 26.3374 82.4774 26.3859 83.9374 25.9508L84.8681 25.6733V24.1551C84.8681 23.32 84.85 22.6377 84.8277 22.6386C84.8053 22.6396 84.4296 22.7478 83.9926 22.8791C80.9468 23.794 79.0061 22.2717 79.5352 19.3826C79.8428 17.7034 80.6329 16.5524 81.9742 15.8295C82.6728 15.453 83.0336 15.3676 83.9691 15.3568C84.597 15.3498 85.3068 15.3982 85.5461 15.4647C85.9737 15.5833 85.9885 15.562 86.3959 14.2393C86.624 13.499 86.8106 12.8168 86.8106 12.7235C86.8106 12.2181 83.2538 12.0442 81.6508 12.4712ZM92.763 12.5855C89.2175 13.8099 87.1514 17.0192 87.3291 21.0255C87.3986 22.5913 87.7369 23.5566 88.5449 24.4952C89.4647 25.5635 91.3036 26.3234 92.9683 26.3234C97.6795 26.3234 101.095 22.7628 101.117 17.8283C101.123 16.4881 101.068 16.1855 100.663 15.3043C100.133 14.1529 99.1373 13.1577 98.0084 12.6522C96.8198 12.1199 94.2073 12.0867 92.763 12.5855ZM118.392 12.5676C117.839 12.7777 117.188 13.2157 116.622 13.7586C116.13 14.231 115.703 14.5939 115.674 14.5654C115.645 14.5367 115.683 14.0691 115.758 13.5262C115.833 12.9833 115.858 12.5031 115.813 12.4589C115.682 12.3287 112.387 12.3672 112.386 12.4988C112.384 12.836 111.787 16.1987 110.924 20.7383C110.393 23.5289 109.959 25.8551 109.959 25.9075C109.959 25.9599 110.835 26.0029 111.906 26.0029C113.324 26.0029 113.87 25.9484 113.914 25.8025C113.948 25.6924 114.274 24.0562 114.639 22.1666C115.312 18.6893 115.686 17.5553 116.517 16.4763C117.079 15.7476 118.207 15.2015 118.859 15.3434C120.066 15.6058 120.105 16.6697 119.105 21.9332C118.705 24.0392 118.377 25.8187 118.377 25.8876C118.376 25.9564 119.264 25.9924 120.348 25.9678L122.32 25.9227L123.089 21.9156C124.043 16.9453 124.172 15.6309 123.825 14.4485C123.549 13.5083 122.837 12.6831 122.048 12.3884C121.284 12.103 119.366 12.197 118.392 12.5676ZM60.3403 12.5789C60.2992 12.6892 59.6955 15.7547 58.9988 19.3911L57.7322 26.0029H59.7133H61.6945L61.7855 25.5621C61.8355 25.3197 62.3919 22.4165 63.0219 19.1106C63.6517 15.8047 64.2073 12.9375 64.2563 12.7392C64.3449 12.3802 64.3366 12.3786 62.3802 12.3786C60.9559 12.3786 60.3945 12.4337 60.3403 12.5789ZM105.041 12.6591C104.951 12.9611 102.512 25.7435 102.512 25.9117C102.512 25.9673 103.401 25.9924 104.486 25.9678L106.46 25.9227L107.72 19.351C108.413 15.7366 108.981 12.6892 108.984 12.5789C108.986 12.4297 108.495 12.3786 107.056 12.3786C105.356 12.3786 105.114 12.4122 105.041 12.6591ZM95.8618 15.3843C96.7788 15.8491 97.0448 16.5382 96.9596 18.229C96.8117 21.164 95.4144 23.278 93.6226 23.278C91.7018 23.278 90.9316 21.5804 91.5925 18.804C92.2727 15.9465 94.0938 14.4879 95.8618 15.3843ZM51.283 15.5165C52.9537 16.3016 52.5715 20.0091 50.5966 22.1736C49.8468 22.9954 49.2351 23.3049 48.3338 23.3184C47.7624 23.3269 47.5268 23.2415 47.1827 22.9009C46.8096 22.5314 46.752 22.3453 46.7628 21.5482C46.7787 20.3892 47.241 18.4637 47.7412 17.4729C48.3922 16.1834 49.4507 15.3495 50.5265 15.2781C50.6466 15.2703 50.9869 15.3775 51.283 15.5165Z" fill="white"/>
</svg>
