<svg width="40" height="40" viewBox="0 0 40 40" fill="none" xmlns="http://www.w3.org/2000/svg">
<circle cx="20" cy="20" r="19.5" stroke="white"/>
<path d="M19.575 20.975L14.675 25.875C14.4917 26.0583 14.2583 26.15 13.975 26.15C13.6917 26.15 13.4583 26.0583 13.275 25.875C13.0917 25.6917 13 25.4583 13 25.175C13 24.8917 13.0917 24.6583 13.275 24.475L18.175 19.575L13.275 14.675C13.0917 14.4917 13 14.2583 13 13.975C13 13.6917 13.0917 13.4583 13.275 13.275C13.4583 13.0917 13.6917 13 13.975 13C14.2583 13 14.4917 13.0917 14.675 13.275L19.575 18.175L24.475 13.275C24.6583 13.0917 24.8917 13 25.175 13C25.4583 13 25.6917 13.0917 25.875 13.275C26.0583 13.4583 26.15 13.6917 26.15 13.975C26.15 14.2583 26.0583 14.4917 25.875 14.675L20.975 19.575L25.875 24.475C26.0583 24.6583 26.15 24.8917 26.15 25.175C26.15 25.4583 26.0583 25.6917 25.875 25.875C25.6917 26.0583 25.4583 26.15 25.175 26.15C24.8917 26.15 24.6583 26.0583 24.475 25.875L19.575 20.975Z" fill="white"/>
</svg>
