<svg width="100%" height="100%" viewBox="0 0 20 20" fill="none" xmlns="http://www.w3.org/2000/svg" fill='#121113'>
<path fill-rule="evenodd" clip-rule="evenodd" d="M8.94763 0.0276227C8.41927 0.0847916 7.49909 0.279894 7.00706 0.439075C5.47123 0.935987 4.22051 1.68337 3.08613 2.7821C1.84836 3.98101 1.03863 5.26314 0.503679 6.87119C0.173884 7.86251 0 8.94328 0 10.0016C0 12.1865 0.696005 14.2596 2.03242 16.0553C2.39633 16.5442 3.45663 17.6098 3.93902 17.9714C5.3814 19.0524 6.87607 19.6707 8.7137 19.9465C9.24584 20.0263 10.8171 20.0145 11.3843 19.9264C13.1283 19.6554 14.604 19.0331 16.0239 17.9701C16.5006 17.6132 17.5646 16.5452 17.9203 16.0667C18.9823 14.638 19.6053 13.1478 19.8628 11.4203C19.8957 11.1999 19.9226 10.9401 19.9226 10.8432C19.9226 10.7462 19.9401 10.6668 19.9616 10.6668C19.9862 10.6668 20.0003 10.4031 20 9.95268C19.9996 9.47717 19.9867 9.25816 19.9616 9.29725C19.9343 9.3397 19.9236 9.30441 19.9232 9.1698C19.9208 8.42304 19.5322 6.89326 19.0988 5.92428C18.4877 4.55821 17.5073 3.26661 16.3368 2.28566C14.9651 1.13602 13.253 0.368093 11.4233 0.0817395C10.931 0.00469248 9.45739 -0.0275115 8.94763 0.0276227ZM12.7099 5.0914C12.165 5.22558 11.8242 5.45922 11.1017 6.19424L10.5266 6.77923V6.97602C10.5266 7.19381 10.628 7.34611 10.8223 7.42026C11.0612 7.51143 11.1721 7.44307 11.8179 6.80655C12.4773 6.1566 12.654 6.04022 13.0885 5.96998C14.0939 5.80748 15.0322 6.75035 14.8577 7.74793C14.7694 8.25256 14.7007 8.33997 13.2478 9.79424C12.0911 10.9519 11.8796 11.1467 11.68 11.2381C10.9928 11.5527 10.1612 11.3298 9.74215 10.7186C9.67544 10.6213 9.57462 10.4076 9.51817 10.2438C9.43622 10.006 9.38873 9.92779 9.283 9.85634C9.12845 9.7519 9.00782 9.74376 8.83484 9.82613C8.5436 9.96485 8.51147 10.2643 8.73125 10.7916C9.03024 11.5088 9.64554 12.0408 10.4001 12.2345C10.9893 12.3858 11.6473 12.3045 12.2148 12.0105C12.4635 11.8816 12.6525 11.7086 13.8724 10.4931C15.3365 9.03441 15.4985 8.83911 15.6758 8.319C15.7941 7.9718 15.8223 7.30944 15.7347 6.93473C15.5302 6.06006 14.7751 5.29585 13.9141 5.09214C13.6101 5.02022 13.0005 5.01987 12.7099 5.0914ZM8.4213 7.71463C8.28192 7.74469 8.01875 7.84255 7.83648 7.93216C7.51558 8.08989 7.46084 8.1392 6.10864 9.48855C4.62735 10.9667 4.46781 11.1586 4.28316 11.6842C4.20737 11.9 4.19365 12.0185 4.19252 12.4668C4.19088 13.1017 4.27291 13.4092 4.56181 13.851C5.01223 14.5398 5.67985 14.9223 6.50101 14.962C7.42556 15.0067 7.85738 14.8005 8.80092 13.8633C9.4037 13.2646 9.50756 13.1152 9.45817 12.9177C9.42214 12.7735 9.24998 12.5926 9.12202 12.5644C8.87261 12.5094 8.77998 12.5692 8.14468 13.1956C7.48493 13.846 7.30883 13.9621 6.87509 14.033C5.8691 14.1973 4.94264 13.2675 5.10635 12.2578C5.18756 11.757 5.232 11.7002 6.69801 10.2246C8.30878 8.60339 8.29361 8.61416 8.96712 8.6131C9.32865 8.61255 9.40156 8.62445 9.59092 8.71476C10.0269 8.92277 10.3486 9.28962 10.4737 9.7215C10.5525 9.99361 10.5891 10.0538 10.7244 10.134C10.9544 10.2703 11.253 10.1741 11.3703 9.92572C11.4581 9.74024 11.402 9.46891 11.1841 9.02334C10.6944 8.02247 9.53684 7.47418 8.4213 7.71463ZM0.0161798 10.0016C0.0161798 10.3997 0.0219889 10.5626 0.0290457 10.3635C0.0361414 10.1644 0.0361414 9.83869 0.0290457 9.63964C0.0219889 9.44054 0.0161798 9.60344 0.0161798 10.0016Z" fill="#121113"/>
</svg>
