<svg width="100%" height="100%" viewBox="0 0 28 28" fill="#0E0E0E" xmlns="http://www.w3.org/2000/svg">
<path fill-rule="evenodd" clip-rule="evenodd" d="M14 0C6.26801 0 0 6.26801 0 14C0 21.732 6.26801 28 14 28C21.732 28 28 21.732 28 14C28 6.26801 21.732 0 14 0ZM16.4771 8C18.0459 8.08257 19.5321 8.57798 20.7706 9.56881C22.1743 12.211 22.9174 15.1835 23 18.2385C21.7615 19.5596 20.0275 20.3853 18.211 20.3853C18.211 20.3853 17.633 19.7248 17.2202 19.1468C18.2936 18.8991 19.2844 18.3211 19.945 17.4128C19.367 17.7431 18.789 18.0734 18.211 18.3211C17.4679 18.6514 16.7248 18.8165 15.9817 18.9817C15.3211 19.0642 14.6606 19.1468 14 19.1468C13.3394 19.1468 12.6789 19.0642 12.0183 18.9817C11.2752 18.8165 10.5321 18.6514 9.78899 18.3211C9.21101 18.0734 8.63303 17.7431 8.05505 17.4128C8.7156 18.3211 9.70642 18.8991 10.7798 19.1468C10.367 19.7248 9.78899 20.3853 9.78899 20.3853C7.97248 20.3853 6.23853 19.5596 5 18.2385C5.08257 15.1835 5.82569 12.211 7.22936 9.56881C8.46789 8.57798 9.95413 8.08257 11.5229 8L11.7706 8.24771C10.367 8.57798 9.12844 9.23853 7.97248 10.1468C9.37615 9.40367 10.945 8.90826 12.5963 8.74312C13.0917 8.66055 13.5046 8.66055 14 8.66055C14.4954 8.66055 14.9083 8.66055 15.4037 8.74312C17.055 8.90826 18.6239 9.40367 20.0275 10.1468C18.8716 9.23853 17.633 8.57798 16.2294 8.24771L16.4771 8ZM9.70642 15.1009C9.70642 16.0092 10.4495 16.7523 11.2752 16.7523C12.1009 16.7523 12.844 16.0092 12.844 15.1009C12.844 14.1927 12.1009 13.4495 11.2752 13.4495C10.4495 13.4495 9.70642 14.1927 9.70642 15.1009ZM15.156 15.1009C15.156 16.0092 15.8991 16.7523 16.7248 16.7523C17.5505 16.7523 18.2936 16.0092 18.2936 15.1009C18.2936 14.1927 17.5505 13.4495 16.7248 13.4495C15.8991 13.4495 15.156 14.1927 15.156 15.1009Z"/>
</svg>
