<svg width="31" height="24" viewBox="0 0 31 24" fill="none" xmlns="http://www.w3.org/2000/svg">
<path d="M25.6616 2.40747C23.7368 1.53943 21.6736 0.897837 19.5161 0.533008C19.4969 0.52932 19.477 0.531697 19.4592 0.539811C19.4414 0.547925 19.4265 0.561375 19.4167 0.578297C19.1525 1.04251 18.8582 1.64762 18.6518 2.12567C16.3636 1.78379 14.0373 1.78379 11.749 2.12567C11.5192 1.59587 11.2601 1.07928 10.9728 0.578297C10.9631 0.561166 10.9483 0.547412 10.9306 0.538871C10.9128 0.530329 10.8929 0.527406 10.8734 0.530492C8.71716 0.895321 6.65399 1.53692 4.72795 2.40622C4.71138 2.41317 4.69733 2.42502 4.68769 2.44018C0.772698 8.19567 -0.300403 13.809 0.226712 19.3519C0.228179 19.3655 0.232393 19.3786 0.239097 19.3905C0.245802 19.4024 0.254857 19.4128 0.265711 19.4211C2.55079 21.0847 5.09949 22.3521 7.80509 23.17C7.82395 23.1758 7.84412 23.1758 7.86298 23.17C7.88183 23.1641 7.89848 23.1527 7.91076 23.1373C8.49298 22.3587 9.0089 21.5326 9.45311 20.6678C9.45928 20.656 9.46283 20.643 9.46353 20.6296C9.46423 20.6163 9.46206 20.603 9.45717 20.5906C9.45228 20.5782 9.44478 20.567 9.43518 20.5577C9.42558 20.5485 9.41411 20.5414 9.40153 20.537C8.58885 20.2309 7.80142 19.8616 7.0465 19.4324C7.03293 19.4247 7.0215 19.4137 7.01323 19.4004C7.00496 19.3872 7.00011 19.3721 6.99911 19.3565C6.99811 19.3409 7.001 19.3253 7.00752 19.3111C7.01403 19.2969 7.02397 19.2846 7.03643 19.2751C7.19495 19.1581 7.35346 19.0361 7.50442 18.9141C7.51801 18.9031 7.53438 18.8961 7.5517 18.8939C7.56903 18.8917 7.58663 18.8943 7.60255 18.9015C12.5428 21.1207 17.8932 21.1207 22.7757 18.9015C22.7916 18.8939 22.8094 18.8909 22.827 18.8929C22.8445 18.8949 22.8612 18.9018 22.875 18.9128C23.026 19.0361 23.1833 19.1581 23.343 19.2751C23.3556 19.2844 23.3657 19.2965 23.3724 19.3106C23.3792 19.3247 23.3823 19.3402 23.3815 19.3558C23.3808 19.3714 23.3762 19.3865 23.3682 19.3999C23.3601 19.4133 23.3489 19.4244 23.3355 19.4324C22.5832 19.8652 21.8007 20.2313 20.9792 20.5357C20.9666 20.5403 20.9551 20.5475 20.9455 20.5569C20.9359 20.5662 20.9284 20.5776 20.9235 20.5901C20.9186 20.6026 20.9165 20.616 20.9172 20.6294C20.9179 20.6428 20.9214 20.6559 20.9276 20.6678C21.3805 21.5321 21.8988 22.3548 22.4687 23.136C22.4805 23.1521 22.4971 23.1641 22.516 23.1704C22.5349 23.1767 22.5553 23.177 22.5744 23.1713C25.2846 22.3556 27.8375 21.0877 30.1251 19.4211C30.1362 19.4133 30.1456 19.4032 30.1525 19.3915C30.1595 19.3797 30.1638 19.3667 30.1653 19.3531C30.7943 12.9447 29.1111 7.37669 25.7006 2.4427C25.6922 2.42666 25.6784 2.41417 25.6616 2.40747ZM10.1916 15.9766C8.70458 15.9766 7.478 14.6318 7.478 12.9825C7.478 11.3319 8.68068 9.98837 10.1916 9.98837C11.7138 9.98837 12.9291 11.3433 12.9051 12.9825C12.9051 14.633 11.7025 15.9766 10.1916 15.9766ZM20.2244 15.9766C18.7361 15.9766 17.5108 14.6318 17.5108 12.9825C17.5108 11.3319 18.7122 9.98837 20.2244 9.98837C21.7466 9.98837 22.9618 11.3433 22.9379 12.9825C22.9379 14.633 21.7478 15.9766 20.2244 15.9766Z" fill="#222222"/>
</svg>
