<svg width="54" height="54" viewBox="0 0 54 54" fill="none" xmlns="http://www.w3.org/2000/svg">
<g clip-path="url(#clip0_4097_32777)">
<circle cx="27" cy="27" r="27" fill="white"/>
<path d="M36.4278 18.4186L31.2841 13.2749V17.5613C31.2841 17.7887 31.3744 18.0067 31.5352 18.1675C31.696 18.3283 31.914 18.4186 32.1414 18.4186H36.4278Z" fill="#121113"/>
<path d="M34.462 24.6707C34.6227 24.8314 34.713 25.0494 34.713 25.2768C34.713 25.5041 34.6227 25.7221 34.462 25.8829L26.9978 33.3471L22.9626 29.312C22.8064 29.1503 22.72 28.9337 22.722 28.7089C22.7239 28.4842 22.8141 28.2692 22.973 28.1102C23.132 27.9513 23.347 27.8611 23.5717 27.8591C23.7965 27.8572 24.0131 27.9436 24.1748 28.0998L26.9978 30.9228L33.2498 24.6707C33.4106 24.51 33.6286 24.4197 33.8559 24.4197C34.0833 24.4197 34.3013 24.51 34.462 24.6707Z" fill="#121113"/>
<path fill-rule="evenodd" clip-rule="evenodd" d="M54 27C54 41.9117 41.9117 54 27 54C12.0883 54 0 41.9117 0 27C0 12.0883 12.0883 0 27 0C41.9117 0 54 12.0883 54 27ZM20.1396 10.7031H31.2841L38.9996 18.4186V38.1359C38.9996 38.5906 38.8189 39.0267 38.4974 39.3482C38.1759 39.6698 37.7398 39.8504 37.285 39.8504H20.1396C19.6848 39.8504 19.2487 39.6698 18.9272 39.3482C18.6057 39.0267 18.425 38.5906 18.425 38.1359V12.4177C18.425 11.9629 18.6057 11.5268 18.9272 11.2053C19.2487 10.8838 19.6848 10.7031 20.1396 10.7031ZM14.9961 15.8465H16.7106V38.9929C16.7106 39.675 16.9816 40.3291 17.4639 40.8114C17.9462 41.2938 18.6004 41.5647 19.2825 41.5647H35.5706V43.2793H19.2825C18.1456 43.2793 17.0554 42.8277 16.2515 42.0238C15.4477 41.22 14.9961 40.1297 14.9961 38.9929V15.8465Z" fill="#121113"/>
</g>
<defs>
<clipPath id="clip0_4097_32777">
<rect width="54" height="54" fill="white"/>
</clipPath>
</defs>
</svg>
