<svg width="100%" height="100%" viewBox="0 0 185 48" fill="none" xmlns="http://www.w3.org/2000/svg">
<g id="Ethereum-Landscape-Black-Logo.wine 1" clip-path="url(#clip0_3509_31917)">
<path id="Vector" d="M52.3581 26.2529C52.3581 26.574 52.0834 26.8443 51.74 26.8443H40.3566C40.6485 29.6155 42.7603 32.1501 45.7478 32.1501C47.791 32.1501 49.3019 31.3898 50.4351 29.7845C50.5553 29.6155 50.727 29.4972 50.933 29.4972C51.2592 29.4972 51.4996 29.7338 51.4996 30.0548C51.4996 30.1731 51.4653 30.2576 51.4138 30.3421C50.2634 32.3022 47.9799 33.2654 45.7478 33.2654C41.919 33.2654 39.1719 29.8859 39.1719 26.2867C39.1719 22.6706 41.9018 19.308 45.7478 19.308C49.5766 19.308 52.3409 22.6537 52.3581 26.2529ZM51.1391 25.7291C50.8987 22.9579 48.7353 20.4233 45.7478 20.4233C42.7603 20.4233 40.6485 22.9579 40.3566 25.7291H51.1391ZM66.1796 19.5784C66.5058 19.5784 66.7462 19.8656 66.7462 20.136C66.7462 20.4571 66.5058 20.6936 66.1796 20.6936H63.1234V32.505C63.1234 32.7923 62.883 33.0626 62.5568 33.0626C62.2306 33.0626 61.9902 32.7754 61.9902 32.505V20.6936H59.0542C58.728 20.6936 58.4876 20.4571 58.4876 20.136C58.4876 19.8487 58.728 19.5784 59.0542 19.5784H61.9902V15.2695C61.9902 14.9822 62.2134 14.7119 62.5053 14.6781C62.8659 14.6443 63.1406 14.8978 63.1406 15.2357V19.5784H66.1796ZM84.8257 25.2897V32.4374C84.8257 32.7585 84.5339 32.995 84.2591 32.995C83.9329 32.995 83.6925 32.7585 83.6925 32.4374V25.2897C83.6925 22.8734 82.3018 20.4739 79.5719 20.4739C76.0693 20.4739 74.5583 23.4817 74.7644 26.574C74.7644 26.6584 74.7987 27.0133 74.7987 27.064V32.4205C74.7987 32.7078 74.5755 32.9781 74.2836 33.0119C73.9231 33.0457 73.6484 32.7922 73.6484 32.4543V8.94983C73.6484 8.66257 73.8887 8.39221 74.2149 8.39221C74.5412 8.39221 74.7815 8.67947 74.7815 8.94983V22.2313C75.7602 20.5077 77.5115 19.3418 79.5547 19.3418C82.9199 19.3418 84.8257 22.2313 84.8257 25.2897ZM105.275 26.2529C105.275 26.574 105 26.8443 104.657 26.8443H93.2732C93.565 29.6155 95.6769 32.1501 98.6644 32.1501C100.708 32.1501 102.218 31.3898 103.352 29.7845C103.472 29.6155 103.644 29.4972 103.85 29.4972C104.176 29.4972 104.416 29.7338 104.416 30.0548C104.416 30.1731 104.382 30.2576 104.33 30.3421C103.18 32.3022 100.896 33.2654 98.6644 33.2654C94.8356 33.2654 92.0885 29.8859 92.0885 26.2867C92.0885 22.6706 94.8184 19.308 98.6644 19.308C102.476 19.308 105.24 22.6537 105.275 26.2529ZM104.038 25.7291C103.798 22.9579 101.635 20.4233 98.6472 20.4233C95.6769 20.4233 93.5479 22.9579 93.256 25.7291H104.038ZM119.251 20.1022C119.251 20.4571 119.045 20.6598 118.718 20.7105C115.37 21.2005 113.859 23.8872 113.859 27.0133V32.3698C113.859 32.6571 113.636 32.9274 113.344 32.9612C112.984 32.995 112.709 32.7416 112.709 32.4036V20.1867C112.709 19.8994 112.932 19.6291 113.224 19.5953C113.585 19.5615 113.859 19.8149 113.859 20.1529V22.6368C114.804 21.0654 116.675 19.5784 118.633 19.5784C118.924 19.5784 119.251 19.7812 119.251 20.1022ZM137.983 26.2529C137.983 26.574 137.708 26.8443 137.365 26.8443H125.981C126.273 29.6155 128.385 32.1501 131.372 32.1501C133.416 32.1501 134.927 31.3898 136.06 29.7845C136.18 29.6155 136.352 29.4972 136.558 29.4972C136.884 29.4972 137.124 29.7338 137.124 30.0548C137.124 30.1731 137.09 30.2576 137.038 30.3421C135.888 32.3022 133.604 33.2654 131.372 33.2654C127.544 33.2654 124.796 29.8859 124.796 26.2867C124.796 22.6706 127.526 19.308 131.372 19.308C135.201 19.308 137.966 22.6537 137.983 26.2529ZM136.764 25.7291C136.523 22.9579 134.36 20.4233 131.372 20.4233C128.385 20.4233 126.273 22.9579 125.981 25.7291H136.764ZM156.388 20.2374V32.505C156.388 32.826 156.097 33.0626 155.822 33.0626C155.496 33.0626 155.255 32.826 155.255 32.505V30.1731C154.311 32.015 152.645 33.3499 150.516 33.3499C147.134 33.3499 145.263 30.4604 145.263 27.4019V20.2205C145.263 19.9332 145.503 19.6629 145.829 19.6629C146.155 19.6629 146.396 19.9501 146.396 20.2205V27.4019C146.396 29.8183 147.787 32.2177 150.516 32.2177C154.345 32.2177 155.255 28.6862 155.255 24.7828V20.2036C155.255 19.8656 155.616 19.5277 156.028 19.6798C156.234 19.7812 156.388 20.0008 156.388 20.2374ZM185.216 25.2391V32.4205C185.216 32.7416 184.924 32.9781 184.65 32.9781C184.323 32.9781 184.083 32.7416 184.083 32.4205V25.2391C184.083 22.8227 182.692 20.4571 179.962 20.4571C176.528 20.4571 175.223 24.0731 175.223 26.8781V32.4205C175.223 32.7416 174.932 32.9781 174.657 32.9781C174.331 32.9781 174.09 32.7416 174.09 32.4205V25.2391C174.09 22.8227 172.7 20.4571 169.97 20.4571C166.501 20.4571 165.076 23.1438 165.196 26.726C165.196 26.8105 165.231 26.9626 165.196 27.0133V32.4036C165.196 32.6909 164.973 32.9612 164.681 32.995C164.321 33.0288 164.046 32.7754 164.046 32.4374V20.1867C164.046 19.8994 164.269 19.6291 164.561 19.5953C164.922 19.5615 165.196 19.8149 165.196 20.1529V22.1975C166.175 20.4739 167.926 19.3418 169.97 19.3418C172.287 19.3418 174.09 20.795 174.829 22.9072C175.773 20.8119 177.61 19.3418 179.962 19.3418C183.31 19.3418 185.216 22.1975 185.216 25.2391Z" fill="white"/>
<path id="Vector_2" opacity="0.6" d="M14.0359 31.5248L28.3038 23.2282L14.0359 16.8578L-0.214844 23.2282L14.0359 31.5248Z" fill="white"/>
<path id="Vector_3" opacity="0.7" d="M14.0359 16.8584V-0.0560303L-0.214844 23.2288L14.0359 31.5255V16.8584Z" fill="white"/>
<path id="Vector_4" d="M14.0352 31.5255L28.3031 23.2288L14.0352 -0.0560303V16.8584V31.5255Z" fill="white"/>
<path id="Vector_5" opacity="0.7" d="M14.0359 34.1764L-0.214844 25.8966L14.0359 45.6667V34.1764Z" fill="white"/>
<path id="Vector_6" d="M28.3031 25.8966L14.0352 34.1764V45.6667L28.3031 25.8966Z" fill="white"/>
</g>
<defs>
<clipPath id="clip0_3509_31917">
<rect width="185" height="48" fill="white"/>
</clipPath>
</defs>
</svg>
