<svg width="100%" height="100%" viewBox="0 0 28 29" fill="#0E0E0E" xmlns="http://www.w3.org/2000/svg">
<path fill-rule="evenodd" clip-rule="evenodd" d="M14 0C6.26801 0 0 6.26801 0 14V14.3028C0 21.0426 4.76257 26.6701 11.1059 28.0033C11.1104 27.9683 11.1126 27.9332 11.1126 27.8987C11.1126 27.7446 11.11 27.4729 11.1065 27.1095L11.1065 27.1092C11.1025 26.6887 11.0973 26.1453 11.0936 25.5193C7.24561 26.3648 6.43382 23.6435 6.43382 23.6435C5.80531 22.0275 4.89843 21.5972 4.89843 21.5972C3.64228 20.7288 4.99353 20.7465 4.99353 20.7465C6.38108 20.8453 7.11161 22.1884 7.11161 22.1884C8.34614 24.3266 10.3492 23.7093 11.1377 23.3506C11.263 22.4465 11.621 21.8298 12.016 21.4801C8.94439 21.1269 5.7154 19.927 5.7154 14.5656C5.7154 13.0379 6.254 11.7892 7.13927 10.8106C6.99662 10.4566 6.522 9.03461 7.27414 7.10811C7.27414 7.10811 8.43606 6.73205 11.078 8.54226C12.182 8.23174 13.3647 8.07713 14.5413 8.07082C15.7162 8.07691 16.8997 8.23174 18.0046 8.54226C20.6448 6.73205 21.8042 7.10811 21.8042 7.10811C22.5589 9.03461 22.0843 10.4566 21.9416 10.8106C22.8286 11.7892 23.3638 13.0379 23.3638 14.5656C23.3638 19.9401 20.1296 21.1234 17.0484 21.4696C17.5447 21.9017 17.9873 22.7551 17.9873 24.0607C17.9873 25.3115 17.9796 26.4004 17.9744 27.1219C17.9727 27.3723 17.9712 27.5785 17.9705 27.7318C23.7686 26.0202 28 20.6557 28 14.3028V14C28 6.26802 21.732 0 14 0Z"/>
</svg>
