<svg width="28" height="28" viewBox="0 0 28 28" fill="none" xmlns="http://www.w3.org/2000/svg">
<path d="M14 0.341797C15.2852 0.341797 16.5247 0.505859 17.7188 0.833984C18.9128 1.16211 20.0247 1.63607 21.0547 2.25586C22.0846 2.87565 23.028 3.60482 23.8848 4.44336C24.7415 5.2819 25.4753 6.22526 26.0859 7.27344C26.6966 8.32161 27.166 9.43815 27.4941 10.623C27.8223 11.8079 27.9909 13.0475 28 14.3418C28 15.8457 27.7721 17.2949 27.3164 18.6895C26.8607 20.084 26.209 21.3646 25.3613 22.5312C24.5137 23.6979 23.5065 24.7188 22.3398 25.5938C21.1732 26.4688 19.8698 27.1478 18.4297 27.6309C18.4023 27.64 18.3613 27.6445 18.3066 27.6445C18.252 27.6445 18.2109 27.6491 18.1836 27.6582C17.9648 27.6582 17.7917 27.5944 17.6641 27.4668C17.5365 27.3392 17.4727 27.1706 17.4727 26.9609V25.0469C17.4727 24.418 17.4772 23.7754 17.4863 23.1191C17.4863 22.6543 17.418 22.1849 17.2812 21.7109C17.1445 21.237 16.8984 20.8405 16.543 20.5215C17.6003 20.403 18.5254 20.1888 19.3184 19.8789C20.1113 19.569 20.7767 19.1315 21.3145 18.5664C21.8522 18.0013 22.2533 17.3177 22.5176 16.5156C22.7819 15.7135 22.9186 14.7474 22.9277 13.6172C22.9277 12.9062 22.8092 12.2363 22.5723 11.6074C22.3353 10.9785 21.9753 10.3952 21.4922 9.85742C21.5924 9.60221 21.6654 9.33789 21.7109 9.06445C21.7565 8.79102 21.7793 8.51758 21.7793 8.24414C21.7793 7.88867 21.7428 7.53776 21.6699 7.19141C21.597 6.84505 21.4922 6.4987 21.3555 6.15234C21.3099 6.13411 21.2598 6.125 21.2051 6.125C21.1504 6.125 21.1003 6.125 21.0547 6.125C20.763 6.125 20.4577 6.17057 20.1387 6.26172C19.8197 6.35286 19.5052 6.47135 19.1953 6.61719C18.8854 6.76302 18.5801 6.92253 18.2793 7.0957C17.9785 7.26888 17.7188 7.43294 17.5 7.58789C16.3607 7.26888 15.194 7.10938 14 7.10938C12.806 7.10938 11.6393 7.26888 10.5 7.58789C10.2721 7.43294 10.0124 7.26888 9.7207 7.0957C9.42904 6.92253 9.12825 6.76758 8.81836 6.63086C8.50846 6.49414 8.18945 6.37565 7.86133 6.27539C7.5332 6.17513 7.22786 6.125 6.94531 6.125H6.79492C6.74023 6.125 6.6901 6.13411 6.64453 6.15234C6.51693 6.48958 6.41667 6.83138 6.34375 7.17773C6.27083 7.52409 6.22982 7.87956 6.2207 8.24414C6.2207 8.51758 6.24349 8.79102 6.28906 9.06445C6.33464 9.33789 6.40755 9.60221 6.50781 9.85742C6.02474 10.3861 5.66471 10.9648 5.42773 11.5938C5.19076 12.2227 5.07227 12.8971 5.07227 13.6172C5.07227 14.7292 5.20443 15.6908 5.46875 16.502C5.73307 17.3132 6.13411 17.9967 6.67188 18.5527C7.20964 19.1087 7.875 19.5508 8.66797 19.8789C9.46094 20.207 10.3861 20.4258 11.4434 20.5352C11.179 20.7721 10.9785 21.0547 10.8418 21.3828C10.7051 21.7109 10.6094 22.0527 10.5547 22.4082C10.3086 22.5267 10.0488 22.6178 9.77539 22.6816C9.50195 22.7454 9.22852 22.7773 8.95508 22.7773C8.37175 22.7773 7.88867 22.6406 7.50586 22.3672C7.12305 22.0938 6.78125 21.7201 6.48047 21.2461C6.37109 21.0729 6.23893 20.8997 6.08398 20.7266C5.92904 20.5534 5.76042 20.3984 5.57812 20.2617C5.39583 20.125 5.19987 20.0156 4.99023 19.9336C4.7806 19.8516 4.56185 19.806 4.33398 19.7969H4.16992C4.09701 19.7969 4.02865 19.8105 3.96484 19.8379C3.90104 19.8652 3.83724 19.8926 3.77344 19.9199C3.70964 19.9473 3.68229 19.9928 3.69141 20.0566C3.69141 20.166 3.75521 20.2708 3.88281 20.3711C4.01042 20.4714 4.11523 20.5534 4.19727 20.6172L4.23828 20.6445C4.4388 20.7995 4.61198 20.9453 4.75781 21.082C4.90365 21.2188 5.04036 21.3691 5.16797 21.5332C5.29557 21.6973 5.40039 21.8704 5.48242 22.0527C5.56445 22.235 5.66927 22.4492 5.79688 22.6953C6.10677 23.4062 6.53971 23.9212 7.0957 24.2402C7.65169 24.5592 8.32161 24.7233 9.10547 24.7324C9.34245 24.7324 9.57943 24.7188 9.81641 24.6914C10.0534 24.6641 10.2904 24.623 10.5273 24.5684V26.9473C10.5273 27.166 10.4635 27.3392 10.3359 27.4668C10.2083 27.5944 10.0306 27.6582 9.80273 27.6582H9.69336C9.64779 27.6582 9.60677 27.6491 9.57031 27.6309C8.13932 27.166 6.83594 26.4961 5.66016 25.6211C4.48438 24.7461 3.47721 23.7207 2.63867 22.5449C1.80013 21.3691 1.15299 20.084 0.697266 18.6895C0.241536 17.2949 0.00911458 15.8457 0 14.3418C0 13.0566 0.164062 11.8171 0.492188 10.623C0.820312 9.42904 1.29427 8.31706 1.91406 7.28711C2.53385 6.25716 3.26302 5.3138 4.10156 4.45703C4.9401 3.60026 5.88346 2.86654 6.93164 2.25586C7.97982 1.64518 9.09635 1.17578 10.2812 0.847656C11.4661 0.519531 12.7057 0.350911 14 0.341797Z" fill="black"/>
</svg>
