<svg width="100%" height="100%" viewBox="0 0 28 28" fill="none" xmlns="http://www.w3.org/2000/svg">
<path fill-rule="evenodd" clip-rule="evenodd" d="M0 14C0 6.26801 6.26801 0 14 0C21.732 0 28 6.26801 28 14C28 21.732 21.732 28 14 28C6.26801 28 0 21.732 0 14ZM7.175 11.6375V21H10.15V11.6375H7.175ZM7 8.6625C7 9.625 7.7 10.325 8.6625 10.325C9.625 10.325 10.325 9.625 10.325 8.6625C10.325 7.7 9.625 7 8.6625 7C7.7875 7 7 7.7 7 8.6625ZM18.025 21H20.825V15.225C20.825 12.3375 19.075 11.375 17.4125 11.375C15.925 11.375 14.875 12.3375 14.6125 12.95V11.6375H11.8125V21H14.7875V16.0125C14.7875 14.7 15.6625 14 16.5375 14C17.4125 14 18.025 14.4375 18.025 15.925V21Z" fill="black"/>
</svg>
