<svg width="100%" height="100%" viewBox="0 0 124 33" fill="#0E0E0E" xmlns="http://www.w3.org/2000/svg">
<path d="M19.5839 19.7364H24.7044C25.0958 19.7364 25.4219 19.449 25.4871 19.0977L26.4982 13.5408C26.7917 11.8482 25.8785 10.1876 24.2804 9.51691L13.648 5.04588C13.3219 4.91814 13.1262 4.5349 13.1914 4.18361L13.7785 0.92614C13.8763 0.447101 13.4849 0 12.9957 0H9.89733C9.63641 0 9.37549 0.127746 9.21242 0.351297L6.44017 4.63071C6.01618 5.30136 5.33128 5.78041 4.58114 5.97202L0.993533 6.9301C0.700001 7.02591 0.471693 7.24946 0.406463 7.53688L0.0150936 9.67659C-0.0827504 10.1556 0.308623 10.6027 0.797843 10.6027H17.6922C19.062 10.6027 20.0731 11.8163 19.8448 13.1257L18.8337 18.7783C18.7033 19.3212 19.0947 19.7364 19.5839 19.7364Z"/>
<path d="M10.7774 12.2656H5.65693C5.26555 12.2656 4.93941 12.553 4.87418 12.9043L3.86312 18.4612C3.56959 20.1538 4.4828 21.8145 6.08091 22.4851L16.7133 26.9562C17.0394 27.0839 17.2351 27.4671 17.1699 27.8184L16.5828 31.0759C16.485 31.5549 16.8764 32.002 17.3656 32.002H20.464C20.7249 32.002 20.9858 31.8743 21.1489 31.6507L23.9211 27.3713C24.3451 26.7007 25.03 26.2216 25.7802 26.03L29.3678 25.0719C29.6613 24.9761 29.8896 24.7526 29.9548 24.4652L30.3462 22.3254C30.4441 21.8464 30.0527 21.3993 29.5635 21.3993H12.6691C11.2993 21.3993 10.2882 20.1857 10.5165 18.8764L11.5276 13.2237C11.6254 12.6808 11.2667 12.2656 10.7774 12.2656Z"/>
<path d="M40.5067 9.89725H35.1253C34.897 9.89725 34.7339 9.70564 34.7339 9.45015V7.85335C34.7339 7.59786 34.897 7.40625 35.1253 7.40625H51.987C52.2153 7.40625 52.3784 7.59786 52.3784 7.85335V9.45015C52.3784 9.70564 52.2153 9.89725 51.987 9.89725H46.6382C46.4099 9.89725 46.2469 10.0889 46.2469 10.3443V21.5219C46.2469 21.7774 46.0838 21.969 45.8555 21.969H41.2568C41.0285 21.969 40.8654 21.7774 40.8654 21.5219V10.3443C40.8981 10.1208 40.735 9.89725 40.5067 9.89725Z"/>
<path d="M50.8786 21.9085C50.1937 21.7169 49.7045 21.3975 49.4435 20.8866C49.1826 20.4075 49.0195 19.673 49.0195 18.7149C49.0195 17.8527 49.1826 17.182 49.4761 16.671C49.7697 16.192 50.2589 15.8088 50.9112 15.6171C51.5635 15.3936 53.0637 15.2978 54.2379 15.2978H58.9018C59.1301 15.2978 59.2931 15.1062 59.2931 14.8507V14.5633C59.2931 14.1162 59.1953 13.7649 59.0322 13.5413C58.8692 13.3178 58.543 13.1581 58.0864 13.0623C57.6298 12.9665 56.9449 12.9345 55.9991 12.9345C54.7923 12.9345 52.705 12.9984 50.6177 13.1581C50.3894 13.19 50.1937 12.9665 50.1937 12.711V11.5293C50.1937 11.3058 50.3567 11.1142 50.5524 11.0822C52.1505 10.9545 54.4336 10.8906 56.4557 10.8906C58.3473 10.8906 60.4021 10.9864 61.4457 11.21C62.4894 11.4335 63.2069 11.7848 63.6635 12.2958C64.1201 12.8068 64.3484 13.5413 64.3484 14.4994V21.5253C64.3484 21.7808 64.1854 21.9724 63.9571 21.9724H59.7498C59.5215 21.9724 59.3584 21.7808 59.3584 21.5253V21.2379C59.3584 21.1421 59.2605 21.0782 59.1627 21.1421C58.8366 21.4295 58.0212 22.0043 57.0754 22.0682C56.4557 22.1321 55.6077 22.1959 54.5314 22.1959C53.1616 22.1959 51.5635 22.1001 50.8786 21.9085ZM58.2495 20.0882C58.543 20.0562 58.7387 20.0243 58.8366 19.9604C58.9344 19.8966 59.0322 19.8007 59.1301 19.673C59.2279 19.5772 59.2605 19.4175 59.2605 19.194V17.5972C59.2605 17.3097 59.0648 17.0862 58.8039 17.0862H56.1621C55.4772 17.0862 54.988 17.1181 54.6945 17.182C54.401 17.2459 54.2053 17.3736 54.1074 17.5972C54.0096 17.7888 53.9444 18.1401 53.9444 18.6511C53.9444 19.1301 54.0096 19.4814 54.1074 19.673C54.2053 19.8646 54.401 19.9924 54.6945 20.0562C54.988 20.1201 55.5099 20.152 56.2926 20.152C57.2058 20.152 57.8581 20.1201 58.2495 20.0882Z"/>
<path d="M66.9565 26.3164V25.007C66.9565 24.7515 67.1522 24.5599 67.3805 24.5599C69.2069 24.7196 71.3595 24.8154 72.925 24.8154C74.4253 24.8154 75.5342 24.6238 76.1865 24.2725C76.8387 23.9212 77.1649 23.3144 77.1649 22.4841V21.015C77.1649 20.8873 77.0344 20.8553 76.9692 20.9192C76.6757 21.2066 76.3821 21.4302 76.0886 21.6218C75.7298 21.8134 75.2732 21.9731 74.7188 22.037C74.1643 22.1328 73.3816 22.1647 72.4031 22.1647C70.9355 22.1647 69.2069 22.0689 68.3589 21.8773C67.511 21.6857 66.8587 21.3344 66.4999 20.8553C66.1085 20.3763 65.9128 19.7376 65.9128 18.9072V14.6597C65.9128 13.6697 66.0759 12.9033 66.4347 12.3604C66.7934 11.8175 67.4131 11.4342 68.2937 11.2107C69.1743 10.9871 71.0007 10.8594 72.6314 10.8594C73.7077 10.8594 74.5231 10.8913 75.0775 10.9871C75.632 11.0829 76.056 11.2107 76.3495 11.4023C76.5778 11.562 76.8387 11.7855 77.1323 12.1049C77.1975 12.2007 77.328 12.1368 77.328 12.0091V11.53C77.328 11.2745 77.491 11.0829 77.7193 11.0829H81.8614C82.0897 11.0829 82.2528 11.2745 82.2528 11.53V22.516C82.2528 24.0489 81.5353 25.1667 80.1002 25.8373C78.6652 26.508 75.8929 26.8593 72.9576 26.8593C70.7724 26.8593 68.6199 26.8273 67.3805 26.7315C67.087 26.7635 66.9565 26.5719 66.9565 26.3164ZM75.9581 20.025C76.4148 19.9292 76.7083 19.8014 76.8714 19.5779C77.0344 19.3863 77.1323 19.0988 77.1323 18.7156V14.3404C77.1323 13.9252 77.0344 13.6378 76.8714 13.4462C76.7083 13.2546 76.3821 13.0949 75.9255 13.031C75.4689 12.9672 74.7188 12.9033 73.7077 12.9033C72.8924 12.9033 72.2727 12.9352 71.8813 13.031C71.4899 13.1268 71.229 13.2865 71.0986 13.4781C70.9681 13.7017 70.9029 14.021 70.9029 14.4362V18.5879C70.9029 19.035 70.9681 19.3863 71.0986 19.5779C71.229 19.7695 71.4899 19.9292 71.9139 19.9931C72.3379 20.0889 72.9902 20.1208 73.936 20.1208C74.8492 20.1527 75.5015 20.1208 75.9581 20.025Z"/>
<path d="M84.4387 7.21875H88.7113C88.9396 7.21875 89.1026 7.41036 89.1026 7.66585V9.42233C89.1026 9.67781 88.9396 9.86943 88.7113 9.86943H84.4387C84.2104 9.86943 84.0474 9.67781 84.0474 9.42233V7.66585C84.0474 7.41036 84.2431 7.21875 84.4387 7.21875ZM84.4387 11.1149H88.7113C88.9396 11.1149 89.1026 11.3066 89.1026 11.562V21.526C89.1026 21.7815 88.9396 21.9732 88.7113 21.9732H84.4387C84.2104 21.9732 84.0474 21.7815 84.0474 21.526V11.562C84.0474 11.3066 84.2431 11.1149 84.4387 11.1149Z"/>
<path d="M96.5703 22.1307C95.9833 22.0988 94.7765 22.003 94.0916 21.8752C93.3415 21.7155 92.7544 21.5239 92.2978 21.2365C91.8412 20.9491 91.4824 20.5658 91.1563 20.0549C90.8628 19.5758 90.6997 18.969 90.6997 18.2665V15.0729C90.6997 14.3703 90.8628 13.7316 91.1563 13.1886C91.4498 12.6457 91.8738 12.2306 92.363 11.9431C92.787 11.6876 93.3741 11.4641 94.059 11.3044C94.7765 11.1447 96.0159 11.017 96.7008 10.9851C97.4835 10.9531 98.2011 10.9531 98.8207 10.9531C99.7666 10.9531 100.517 10.9851 101.071 11.017C101.626 11.0489 102.832 11.1447 103.517 11.3044C104.267 11.4641 104.854 11.6876 105.311 11.9751C105.768 12.2625 106.159 12.6777 106.485 13.1886C106.779 13.7316 106.942 14.3703 106.942 15.1048V18.2984C106.942 18.969 106.779 19.5758 106.485 20.0549C106.192 20.5658 105.8 20.9491 105.344 21.2365C104.92 21.492 104.365 21.6836 103.68 21.8433C102.963 22.0029 101.723 22.0988 101.039 22.1307C100.419 22.1626 99.7013 22.1946 98.8207 22.1946C97.9401 22.1946 97.1574 22.1626 96.5703 22.1307ZM100.745 19.991C101.169 19.8952 101.463 19.7355 101.658 19.5439C101.821 19.3203 101.919 19.0329 101.919 18.6177V14.5299C101.919 13.9232 101.691 13.508 101.267 13.2844C100.843 13.0609 100.027 12.9331 98.8534 12.9331C97.6792 12.9331 96.8639 13.0609 96.4399 13.2844C96.0159 13.508 95.7876 13.9551 95.7876 14.5299V18.6177C95.7876 19.0329 95.8854 19.3203 96.0485 19.5439C96.2116 19.7674 96.5377 19.8952 96.9617 19.991C97.3857 20.0868 98.038 20.1507 98.8534 20.1507C99.7014 20.1507 100.321 20.1187 100.745 19.991Z"/>
<path d="M108.867 11.1142H113.107C113.335 11.1142 113.498 11.3058 113.498 11.5613V11.9764C113.498 12.1042 113.629 12.1681 113.694 12.0723C114.281 11.3058 115.814 10.8906 118.26 10.8906C120.151 10.8906 122.076 11.1461 122.859 11.6251C123.641 12.1361 124 12.9026 124 13.9884V21.4934C124 21.7488 123.837 21.9405 123.609 21.9405H119.336C119.108 21.9405 118.945 21.7488 118.945 21.4934V14.4036C118.945 13.9884 118.88 13.6691 118.782 13.4774C118.684 13.2539 118.456 13.1261 118.097 13.0303C117.771 12.9345 117.249 12.9026 116.531 12.9026C115.651 12.9026 114.998 12.9345 114.607 13.0303C114.183 13.1261 113.922 13.2539 113.792 13.4774C113.661 13.701 113.563 14.0203 113.563 14.4355V21.5253C113.563 21.7808 113.4 21.9724 113.172 21.9724H108.899C108.671 21.9724 108.508 21.7808 108.508 21.5253V11.5613C108.475 11.3058 108.639 11.1142 108.867 11.1142Z"/>
</svg>
