<svg width="auto" height="auto" viewBox="0 0 148 36" fill="none" xmlns="http://www.w3.org/2000/svg">
<path d="M7.91893 1.39506L7.26602 6.69609H1.99326C1.22814 6.69609 0.53017 7.32073 0.434751 8.09115L0.0106684 11.5324C-0.0838667 12.3028 0.460373 12.9275 1.22637 12.9275H22.1319L21.7308 16.1823C21.6362 16.9527 22.1814 17.5774 22.9465 17.5774H26.3692C27.1361 17.5774 27.834 16.9527 27.9286 16.1814L28.9252 8.09115C29.0197 7.32073 28.4746 6.69609 27.7086 6.69609H13.4647L14.1176 1.39506C14.2113 0.624639 13.6661 0 12.901 0H9.47832C8.71143 0 8.01346 0.624639 7.91893 1.39506ZM25.7419 33.9452L26.3948 28.6441H31.6667C32.4336 28.6441 33.1315 28.0195 33.2261 27.2491L33.6502 23.8078C33.7447 23.0374 33.2005 22.4128 32.4345 22.4128H11.5289L11.93 19.1579C12.0246 18.3875 11.4795 17.7629 10.7135 17.7629H7.29164C6.52476 17.7629 5.82679 18.3875 5.73225 19.1588L4.73566 27.2482C4.64112 28.0186 5.18625 28.6433 5.95136 28.6433H20.197L19.5441 33.9443C19.4496 34.7147 19.9938 35.3394 20.7598 35.3394H24.1825C24.9485 35.3394 25.6474 34.7147 25.7419 33.9443V33.9452ZM43.7937 27.7677C43.1178 27.7677 42.5736 27.1378 42.6716 26.4698L44.785 12.1694H40.1952C39.1632 12.1694 38.3398 11.1914 38.5209 10.178L38.7657 8.79707C38.8241 8.45209 39.0038 8.1393 39.2723 7.91498C39.5409 7.69067 39.8806 7.56954 40.2305 7.57341H54.6794C55.7113 7.57341 56.5347 8.55145 56.3536 9.56483L56.108 10.9458C56.0497 11.2907 55.8702 11.6034 55.6018 11.8278C55.3335 12.0521 54.9938 12.1732 54.644 12.1694H49.4658L47.4046 26.4928C47.3569 26.8484 47.1809 27.1744 46.9096 27.4092C46.6383 27.644 46.2906 27.7715 45.9318 27.7677H43.7937Z" fill="#222222"/>
<path fill-rule="evenodd" clip-rule="evenodd" d="M56.3413 27.7681C55.6574 27.7681 55.1105 27.1231 55.2236 26.4499L58.1843 8.81161C58.2397 8.46374 58.4183 8.14738 58.6875 7.92018C58.9567 7.69297 59.2986 7.57005 59.6509 7.57381H74.4381C75.4674 7.57381 76.2891 8.54832 76.1132 9.55994L73.15 26.5392C73.0924 26.8851 72.913 27.199 72.6442 27.4243C72.3754 27.6495 72.0349 27.7711 71.6842 27.7672H69.5435C68.857 27.7672 68.3083 27.1178 68.4267 26.4429L69.1715 22.1914L60.6908 22.2064L59.9283 26.5409C59.8706 26.8864 59.6914 27.1999 59.423 27.4249C59.1545 27.6499 58.8146 27.7716 58.4643 27.7681H56.3413ZM69.9746 17.6387L70.9332 12.1999H62.8845C62.7606 12.2053 62.6423 12.2534 62.5496 12.3359C62.4441 12.4306 62.3737 12.5583 62.35 12.6981L61.4912 17.5804L69.9746 17.6387Z" fill="#222222"/>
<path d="M75.9192 22.5828C75.7311 23.9496 76.103 25.1556 77.036 26.2008C77.9787 27.2451 79.1458 27.7681 80.5373 27.7681H90.331C92.3984 27.7681 93.7466 26.6523 94.3757 24.4223C94.4852 23.8197 94.586 23.2313 94.6778 22.6588C95.0198 20.6365 95.3184 18.8624 95.5728 17.3366C95.7407 16.3285 94.9208 15.3646 93.8977 15.3646H84.4601C83.7153 15.3646 83.1039 15.8885 82.9899 16.6236L82.6736 18.6724C82.5703 19.3412 83.1154 19.9765 83.7939 19.9765H90.1499L89.6975 22.6447C89.6975 22.7949 89.641 22.915 89.5279 23.006C89.4419 23.0889 89.3283 23.137 89.2089 23.1412H81.4871C81.3971 23.1428 81.3079 23.1247 81.2257 23.0882C81.1434 23.0517 81.0701 22.9978 81.0109 22.93C80.9485 22.8643 80.9013 22.7857 80.8725 22.6998C80.8436 22.6139 80.8339 22.5227 80.8439 22.4326L82.459 12.6973C82.4935 12.5545 82.5743 12.4272 82.6887 12.335C82.7812 12.253 82.8991 12.2053 83.0226 12.1999H95.1673C95.9041 12.1999 96.5102 11.6883 96.633 10.9647L96.8734 9.55288C97.0448 8.54303 96.224 7.57383 95.1965 7.57383H81.8856C79.8279 7.57383 78.4841 8.68881 77.855 10.9188L75.9201 22.5837L75.9192 22.5828ZM97.2374 27.7681C96.542 27.7681 95.9916 27.1028 96.1241 26.4225L99.5786 8.77009C99.643 8.43083 99.8246 8.12503 100.092 7.90629C100.359 7.68756 100.695 7.56986 101.04 7.57383H102.844C103.49 7.57383 104.006 8.18345 103.895 8.81957L100.83 26.5374C100.773 26.8838 100.594 27.1984 100.325 27.4242C100.056 27.6499 99.715 27.7719 99.364 27.7681H97.2374Z" fill="#222222"/>
<path fill-rule="evenodd" clip-rule="evenodd" d="M105.314 10.9187C106.042 8.68872 107.495 7.57373 109.672 7.57373H120.002C121.473 7.57373 122.699 8.095 123.682 9.14107C124.675 10.1854 125.071 11.3914 124.873 12.7573L124.873 12.7723L124.826 12.9534C124.813 13.0342 124.799 13.1147 124.782 13.1946C124.765 13.3359 124.744 13.4767 124.72 13.6169L124.61 14.2195C124.567 14.4607 124.516 14.7469 124.458 15.0782C124.4 15.4104 124.33 15.7921 124.25 16.2241C124.07 17.3211 123.878 18.4161 123.675 19.509C123.559 20.1822 123.429 20.9315 123.284 21.7549C123.149 22.5677 122.993 23.4574 122.818 24.4222C122.179 26.6522 120.731 27.768 118.475 27.768H108.219C106.709 27.768 105.462 27.245 104.48 26.2007C103.497 25.1555 103.095 23.9495 103.274 22.5836L103.27 22.5235C103.278 22.4935 103.285 22.4529 103.292 22.4025C103.308 22.3424 103.322 22.2567 103.334 22.1463C103.357 22.0358 103.383 21.9007 103.412 21.7399C103.451 21.5685 103.487 21.3626 103.521 21.1214C103.642 20.4542 103.757 19.7859 103.867 19.1167C103.949 18.6856 104.036 18.1979 104.13 17.6554C104.233 17.1129 104.343 16.5051 104.457 15.8319C104.572 15.1586 104.703 14.4156 104.848 13.6019C104.993 12.7776 105.148 11.8835 105.314 10.9187ZM117.293 23.1411C117.601 23.1411 117.799 22.975 117.887 22.6437L117.884 22.5986C117.895 22.5643 117.903 22.5287 117.906 22.4926L117.937 22.2823C117.962 22.1913 117.984 22.0809 118.005 21.951C118.072 21.538 118.144 21.126 118.222 20.715C118.275 20.4438 118.328 20.1266 118.384 19.7652C118.45 19.403 118.523 18.9966 118.602 18.5451C118.682 18.0821 118.772 17.5697 118.874 17.0078C118.977 16.445 119.086 15.8266 119.2 15.1533C119.325 14.4704 119.46 13.722 119.605 12.9083C119.616 12.8194 119.608 12.7293 119.581 12.6437C119.555 12.558 119.512 12.4788 119.453 12.4109C119.335 12.2696 119.162 12.1998 118.933 12.1998H110.853C110.535 12.1998 110.338 12.3659 110.26 12.6972L110.261 12.7122L110.248 12.7422C110.246 12.7786 110.239 12.8145 110.225 12.8483C110.2 13.035 110.167 13.2207 110.128 13.4049L110.041 13.9173C110.005 14.1187 109.961 14.3546 109.909 14.6268C109.859 14.9437 109.806 15.2601 109.748 15.5756C109.691 15.9379 109.619 16.3496 109.531 16.8117C109.44 17.3193 109.349 17.8267 109.257 18.3339C109.165 18.8959 109.056 19.5187 108.932 20.2026C108.817 20.8758 108.687 21.6188 108.541 22.4325C108.531 22.5238 108.543 22.6161 108.575 22.7023C108.606 22.7885 108.657 22.8663 108.723 22.9299C108.786 22.9972 108.862 23.0507 108.946 23.0871C109.03 23.1234 109.121 23.1418 109.213 23.1411H117.293Z" fill="#222222"/>
<path d="M126.051 27.7681C125.024 27.7681 124.203 26.798 124.375 25.7882L127.263 8.80896C127.386 8.08449 127.993 7.57382 128.729 7.57382H131.241C131.79 7.57382 132.319 7.86008 132.641 8.33099L141.079 20.7151L143.081 8.81161C143.136 8.46367 143.315 8.1472 143.584 7.91997C143.853 7.69273 144.195 7.56988 144.548 7.57382H146.008C147.043 7.57382 147.865 8.55628 147.681 9.57055L144.593 26.5498C144.533 26.8935 144.353 27.2048 144.085 27.428C143.817 27.6512 143.478 27.7718 143.13 27.7681H141.559C140.843 27.7681 140.198 27.2477 140.029 26.5356L131.145 13.5711L128.999 26.525C128.944 26.8738 128.766 27.1913 128.497 27.4194C128.228 27.6475 127.885 27.771 127.532 27.7672H126.051V27.7681Z" fill="#222222"/>
</svg>
