<svg width="54" height="54" viewBox="0 0 54 54" fill="none" xmlns="http://www.w3.org/2000/svg">
<path id="Vector" fill-rule="evenodd" clip-rule="evenodd" d="M27 54C41.9117 54 54 41.9117 54 27C54 12.0883 41.9117 0 27 0C12.0883 0 0 12.0883 0 27C0 41.9117 12.0883 54 27 54ZM44.05 36.2125C45.1643 36.2125 46 32.0875 46 27C46 21.9125 45.1643 17.7875 44.05 17.7875C42.9357 17.7875 42.1 21.9125 42.1 27C42.1 32.0875 42.9357 36.2125 44.05 36.2125ZM35.6929 37.3125C38.6179 37.3125 41.125 32.6375 41.125 27C41.125 21.3625 38.6179 16.6875 35.6929 16.6875C32.7679 16.6875 30.2607 21.3625 30.2607 27C30.2607 32.6375 32.7679 37.3125 35.6929 37.3125ZM18.0036 38C24.1321 38 29.0071 33.05 29.0071 27C29.0071 20.95 24.1321 16 18.0036 16C11.875 16 7 20.95 7 27C7 33.05 11.875 38 18.0036 38Z" fill="#121113"/>
</svg>
