<svg version="1.1" id="Layer_1" xmlns="http://www.w3.org/2000/svg" xmlns:xlink="http://www.w3.org/1999/xlink" x="0px" y="0px"
	 width="100%" viewBox="0 0 262 295" enable-background="new 0 0 262 295" xml:space="preserve">
<path fill="#0E0E0E" opacity="1.000000" stroke="none" 
	d="
M263.000000,295.000000 
	C261.503052,295.333344 260.006287,295.957550 258.509155,295.958374 
	C173.318558,296.005096 88.127937,296.000000 2.460120,295.531372 
	C1.988617,197.041855 1.994309,99.020927 2.000000,1.000000 
	C89.000000,1.000000 176.000000,1.000000 262.712341,1.801378 
	C262.288574,4.080074 262.033539,5.557368 262.033234,7.034712 
	C262.014465,101.289467 262.011169,195.544220 262.057465,289.798950 
	C262.058289,291.532806 262.672150,293.266327 263.000000,295.000000 
M14.622293,261.499817 
	C14.618136,267.830017 14.894054,274.176941 14.518037,280.484985 
	C14.235422,285.226044 15.979097,286.366608 20.529903,286.358704 
	C94.830170,286.229736 169.130737,286.268158 243.431229,286.268219 
	C249.737289,286.268219 249.928497,286.081085 249.928375,279.858490 
	C249.926651,192.397141 249.924637,104.935783 249.919754,17.474432 
	C249.919403,11.126327 249.753128,10.953721 243.558182,10.953488 
	C169.090942,10.950688 94.623627,10.987594 20.156590,10.864110 
	C15.682260,10.856690 14.535007,12.292799 14.540881,16.607445 
	C14.651573,97.904793 14.622475,179.202316 14.622293,261.499817 
z"/>
<path fill="#232323" opacity="1.000000" stroke="none" 
	d="
M1.500000,1.000000 
	C1.994309,99.020927 1.988617,197.041855 1.991461,295.531372 
	C1.666663,294.503082 1.042358,293.006348 1.041591,291.509247 
	C0.995187,200.995483 1.000000,110.481697 1.000000,19.967909 
	C1.000000,13.645272 1.000000,7.322636 1.500000,1.000000 
z"/>
<path fill="#1C1C1C" opacity="1.000000" stroke="none" 
	d="
M263.000000,294.531342 
	C262.672150,293.266327 262.058289,291.532806 262.057465,289.798950 
	C262.011169,195.544220 262.014465,101.289467 262.033234,7.034712 
	C262.033539,5.557368 262.288574,4.080074 262.712341,2.301378 
	C263.000000,99.354225 263.000000,196.708450 263.000000,294.531342 
z"/>
<path fill="#F8F8F8" opacity="1.000000" stroke="none" 
	d="
M14.622427,260.999817 
	C14.622475,179.202316 14.651573,97.904793 14.540881,16.607445 
	C14.535007,12.292799 15.682260,10.856690 20.156590,10.864110 
	C94.623627,10.987594 169.090942,10.950688 243.558182,10.953488 
	C249.753128,10.953721 249.919403,11.126327 249.919754,17.474432 
	C249.924637,104.935783 249.926651,192.397141 249.928375,279.858490 
	C249.928497,286.081085 249.737289,286.268219 243.431229,286.268219 
	C169.130737,286.268158 94.830170,286.229736 20.529903,286.358704 
	C15.979097,286.366608 14.235422,285.226044 14.518037,280.484985 
	C14.894054,274.176941 14.618136,267.830017 14.622427,260.999817 
M209.494080,233.547028 
	C213.826630,233.543396 218.159744,233.582016 222.491623,233.526276 
	C229.127792,233.440918 231.925949,230.650894 231.924362,224.122971 
	C231.909073,161.635483 231.888000,99.147987 231.854309,36.660496 
	C231.850098,28.849037 229.122437,26.087383 221.522049,26.086988 
	C162.033722,26.083897 102.545387,26.083553 43.057053,26.087152 
	C34.328941,26.087681 31.934078,28.494135 31.932060,37.366512 
	C31.918047,99.020973 31.917620,160.675430 31.915190,222.329895 
	C31.914831,231.413406 34.006809,233.538925 43.028843,233.540314 
	C98.184662,233.548813 153.340485,233.547134 209.494080,233.547028 
z"/>
<path fill="#090909" opacity="1.000000" stroke="none" 
	d="
M208.995193,233.547943 
	C153.340485,233.547134 98.184662,233.548813 43.028843,233.540314 
	C34.006809,233.538925 31.914831,231.413406 31.915190,222.329895 
	C31.917620,160.675430 31.918047,99.020973 31.932060,37.366512 
	C31.934078,28.494135 34.328941,26.087681 43.057053,26.087152 
	C102.545387,26.083553 162.033722,26.083897 221.522049,26.086988 
	C229.122437,26.087383 231.850098,28.849037 231.854309,36.660496 
	C231.888000,99.147987 231.909073,161.635483 231.924362,224.122971 
	C231.925949,230.650894 229.127792,233.440918 222.491623,233.526276 
	C218.159744,233.582016 213.826630,233.543396 208.995193,233.547943 
M126.685936,76.429840 
	C126.068031,76.794121 125.450127,77.158401 124.103294,77.739960 
	C123.106949,77.918640 122.110611,78.097313 120.445412,77.958443 
	C119.273941,78.541893 118.102470,79.125351 116.215866,79.798256 
	C115.536240,80.030151 114.856606,80.262047 113.562263,80.250198 
	C112.601135,81.076096 111.640007,81.902000 110.069275,82.975014 
	C108.270111,85.219368 106.470947,87.463715 103.986610,89.873138 
	C102.766014,93.643341 101.545425,97.413551 100.200226,101.784355 
	C100.174294,102.192039 100.148361,102.599731 99.614182,103.586800 
	C97.053894,114.762245 97.482269,125.892349 100.136818,137.692947 
	C100.230049,138.390137 100.323280,139.087326 100.067520,140.476105 
	C100.766273,141.978271 101.465027,143.480423 102.231255,145.678268 
	C102.346138,146.367142 102.461029,147.056030 102.245323,148.467682 
	C104.213936,155.576950 106.386978,162.571182 112.910736,167.065033 
	C112.910736,167.065033 112.815468,167.219269 112.949944,168.022598 
	C113.465012,171.430420 113.980080,174.838226 114.400421,179.063660 
	C114.311661,180.711975 114.222893,182.360306 113.599281,184.498444 
	C112.254997,188.759995 110.910706,193.021545 109.214500,197.788116 
	C108.695320,198.422394 108.176140,199.056671 106.956581,199.823746 
	C102.307724,201.585175 97.658867,203.346603 92.248825,205.124756 
	C91.240334,205.233810 90.231842,205.342865 88.417946,205.112473 
	C85.505470,205.946915 82.593002,206.781357 79.012268,207.652008 
	C78.361198,207.796753 77.710136,207.941513 76.416061,207.825897 
	C75.271950,208.484192 74.127838,209.142487 72.273079,209.875946 
	C71.574661,210.024017 70.876244,210.172073 69.560196,209.999115 
	C68.906013,210.491638 68.251831,210.984161 67.001480,211.711914 
	C66.395645,211.920242 65.789818,212.128555 64.531578,212.059097 
	C63.204998,212.802307 61.878418,213.545532 59.894104,214.456955 
	C59.024761,214.708115 58.155415,214.959290 56.541870,215.011032 
	C54.893967,216.013168 53.246067,217.015320 51.598167,218.017456 
	C51.814281,218.569977 52.030396,219.122498 52.246510,219.675018 
	C53.481228,219.535278 54.715950,219.395538 56.640285,219.110352 
	C57.106228,219.151962 57.572170,219.193558 58.653881,219.782990 
	C59.311813,219.854599 59.969734,219.988785 60.627678,219.988907 
	C107.820908,219.998032 155.014145,220.002335 202.207336,219.963928 
	C203.461166,219.962906 204.714615,219.488281 206.660309,219.108231 
	C207.123947,219.159470 207.587570,219.210724 208.464798,219.773849 
	C209.636963,219.435699 210.809128,219.097549 211.981308,218.759399 
	C212.024933,218.263229 212.068558,217.767044 212.112183,217.270874 
	C210.080994,216.471939 208.049820,215.672989 205.375916,214.819763 
	C204.977783,214.663696 204.579636,214.507629 203.970642,213.699142 
	C202.790771,213.327347 201.610916,212.955566 199.937805,212.578949 
	C199.607513,212.523941 199.304733,212.401138 198.696945,211.600235 
	C196.472916,210.997330 194.248871,210.394440 191.379837,209.817719 
	C190.983231,209.664627 190.586639,209.511536 190.160767,208.769272 
	C189.113373,208.471130 188.065979,208.172989 186.253860,207.860077 
	C184.500031,207.592422 182.746201,207.324783 180.723633,206.355759 
	C178.744629,206.074799 176.765640,205.793839 173.974594,205.343323 
	C172.316925,205.223724 170.659241,205.104141 168.507416,204.415131 
	C165.968719,204.012527 163.430038,203.609924 160.384995,202.977768 
	C160.026276,202.886841 159.667542,202.795914 159.173843,202.031601 
	C156.038818,196.365387 152.903809,190.699173 149.773895,184.226593 
	C149.635468,182.892609 149.497025,181.558640 149.749451,179.344833 
	C149.629532,176.150604 149.509598,172.956375 149.637329,169.201721 
	C149.768585,168.814896 149.899857,168.428085 150.711304,168.012299 
	C151.761520,166.648163 152.811737,165.284012 154.104675,163.616409 
	C154.104675,163.616409 154.218323,163.244827 154.900757,163.125214 
	C158.252625,158.507965 161.678650,153.921844 161.536194,147.174240 
	C161.608734,146.771194 161.681274,146.368164 162.560577,145.835785 
	C162.633499,144.520615 162.706421,143.205460 163.025772,141.139053 
	C163.431900,138.453491 163.838013,135.767929 164.866257,133.040512 
	C164.922348,132.029434 164.978439,131.018341 165.061142,129.152802 
	C165.334335,125.771027 165.607513,122.389259 166.372528,118.646782 
	C166.213989,117.762894 166.055466,116.879013 165.845123,115.198517 
	C165.599289,112.792068 165.353455,110.385628 165.554993,107.675140 
	C165.140167,107.084496 164.725357,106.493843 164.053986,105.122765 
	C163.631851,102.783508 163.209702,100.444244 163.003571,97.359566 
	C162.718277,96.163208 162.432983,94.966850 162.155655,92.973488 
	C161.552689,87.321014 159.437561,82.617035 153.337372,79.729752 
	C151.515137,79.256599 149.692886,78.783447 147.103699,78.093185 
	C145.788940,77.922859 144.474182,77.752533 143.008133,76.963486 
	C141.678314,76.932747 140.348511,76.902000 138.220215,76.865433 
	C136.464020,77.075813 134.707840,77.286194 132.178070,77.338844 
	C131.131271,77.393723 130.084473,77.448601 128.759476,76.973343 
	C128.166931,76.934204 127.574379,76.895073 126.685936,76.429840 
M177.599167,106.400673 
	C177.851837,107.389008 178.104523,108.377335 178.451935,110.086540 
	C178.549911,111.051926 178.647873,112.017319 178.298264,113.613091 
	C178.450638,116.414131 178.602997,119.215172 178.707748,122.821419 
	C178.586548,124.419243 178.465332,126.017059 177.891403,128.014557 
	C177.923401,129.343246 177.955399,130.671936 177.913544,132.842209 
	C178.026489,133.938934 178.139450,135.035645 178.116089,136.917099 
	C177.757874,139.277679 177.399673,141.638245 176.484512,143.875671 
	C176.289993,144.585922 176.095474,145.296173 175.764908,146.715179 
	C175.878998,147.164551 175.993088,147.613907 175.885513,148.790878 
	C175.685287,149.782852 175.485062,150.774826 174.698853,152.062637 
	C170.908493,159.270370 167.108856,166.473312 163.361572,173.703384 
	C163.211151,173.993637 163.557007,174.541092 163.621201,175.813263 
	C163.636444,177.221115 163.651688,178.628952 163.183960,180.597076 
	C164.494324,184.148407 164.994064,189.996765 167.273773,190.801270 
	C173.081039,192.850662 179.683472,192.646805 186.583740,193.339554 
	C186.979065,193.444290 187.374405,193.549026 188.021347,194.289612 
	C191.212616,195.452835 194.390823,196.653519 197.598175,197.770538 
	C202.472687,199.468140 207.367416,201.107666 212.948273,202.856812 
	C213.625183,203.034134 214.302078,203.211456 215.277298,204.212860 
	C218.169113,205.452728 218.164261,203.899765 217.678741,200.897217 
	C217.683563,149.254395 217.619415,97.611313 217.806870,45.969151 
	C217.824371,41.153023 216.239777,40.230980 211.834213,40.242023 
	C158.525513,40.375702 105.216347,40.326302 51.907307,40.340488 
	C50.128902,40.340961 48.350540,40.509579 46.465141,40.605251 
	C46.306076,42.042240 46.104870,43.010849 46.105110,43.979404 
	C46.118210,96.620750 46.148228,149.262085 45.802219,202.629120 
	C46.542500,203.354294 47.605984,204.846390 47.975105,204.690842 
	C54.693493,201.859589 61.328423,198.830307 68.597191,195.817108 
	C68.996956,195.724869 69.396721,195.632629 70.473602,195.853546 
	C72.135643,195.108322 73.797676,194.363113 75.976631,193.595673 
	C76.311172,193.514389 76.645714,193.433121 77.589264,193.716232 
	C81.722450,192.778976 85.855637,191.841721 90.711098,190.946274 
	C91.429611,190.877121 92.148117,190.807983 93.600060,191.084305 
	C99.043831,190.857986 99.877296,187.226700 99.837578,182.234467 
	C99.852104,181.819595 99.866638,181.404739 100.353676,180.405701 
	C101.024521,176.634338 101.245232,173.009506 96.892815,170.230423 
	C96.381790,169.570786 95.870766,168.911163 95.608070,167.565735 
	C93.216248,162.251465 90.824417,156.937210 88.422539,151.079315 
	C88.350189,150.724747 88.277840,150.370163 88.579468,149.450211 
	C87.671585,146.305847 86.763710,143.161484 85.864113,139.248611 
	C85.768929,138.229340 85.673744,137.210068 85.945717,135.299133 
	C85.835709,124.471237 85.725693,113.643333 85.757675,102.118431 
	C85.807320,101.409554 85.856972,100.700684 86.425369,99.517326 
	C87.033630,96.669785 87.641884,93.822243 88.420616,90.481140 
	C88.480110,90.138718 88.539604,89.796288 89.241310,89.240799 
	C90.352013,86.756302 91.462715,84.271805 92.860100,81.314697 
	C93.003822,80.975739 93.147545,80.636780 93.968124,80.250206 
	C95.055290,78.590065 96.142456,76.929916 97.137871,75.135818 
	C97.137871,75.135818 97.271545,75.227989 97.901329,75.206802 
	C98.343918,74.541153 98.786507,73.875504 99.594162,73.062828 
	C99.594162,73.062828 99.876747,72.788895 100.572662,72.897430 
	C106.708107,69.874687 112.843544,66.851952 119.688522,63.830250 
	C120.389313,63.726974 121.090103,63.623699 122.696136,63.873951 
	C130.535934,63.756721 138.375717,63.639492 146.908279,63.659801 
	C147.612823,63.696083 148.317368,63.732368 149.516937,64.316429 
	C156.760452,65.473061 162.520645,69.475288 168.258194,74.530945 
	C168.883682,75.326439 169.509186,76.121941 169.993210,77.647926 
	C171.802765,81.244507 173.612335,84.841080 175.468262,89.155190 
	C175.665207,90.091354 175.862167,91.027519 175.731979,92.537140 
	C176.160187,93.203339 176.588394,93.869530 177.192032,95.341225 
	C177.552872,97.848015 177.913696,100.354797 177.905380,103.580948 
	C177.932037,104.387039 177.958694,105.193138 177.599167,106.400673 
z"/>
<path fill="#FBFBFB" opacity="1.000000" stroke="none" 
	d="
M85.906616,99.991806 
	C85.856972,100.700684 85.807320,101.409554 85.354996,102.605919 
	C81.928383,113.780243 82.732994,124.521126 84.548744,135.265884 
	C84.608932,135.622025 85.222794,135.884598 85.578568,136.190796 
	C85.673744,137.210068 85.768929,138.229340 85.616562,139.885834 
	C86.314507,143.687241 87.260002,146.851410 88.205498,150.015594 
	C88.277840,150.370163 88.350189,150.724747 88.240799,151.730865 
	C90.492615,157.672134 92.926178,162.961823 95.359741,168.251526 
	C95.870766,168.911163 96.381790,169.570786 96.968735,170.886703 
	C97.990158,174.691940 98.935661,177.840912 99.881165,180.989868 
	C99.866638,181.404739 99.852104,181.819595 99.431625,182.614624 
	C96.972656,185.576126 94.919647,188.157471 92.866631,190.738831 
	C92.148117,190.807983 91.429611,190.877121 90.057693,190.682953 
	C85.262939,191.397018 81.121597,192.374435 76.980255,193.351852 
	C76.645714,193.433121 76.311172,193.514389 75.385437,193.414673 
	C73.128326,194.002594 71.462402,194.771484 69.796486,195.540390 
	C69.396721,195.632629 68.996956,195.724869 68.060806,195.589554 
	C65.978798,195.829086 64.431374,196.290329 62.887859,196.764297 
	C57.316704,198.475021 51.746857,200.190033 46.176517,201.903427 
	C46.148228,149.262085 46.118210,96.620750 46.105110,43.979404 
	C46.104870,43.010849 46.306076,42.042240 46.465141,40.605251 
	C48.350540,40.509579 50.128902,40.340961 51.907307,40.340488 
	C105.216347,40.326302 158.525513,40.375702 211.834213,40.242023 
	C216.239777,40.230980 217.824371,41.153023 217.806870,45.969151 
	C217.619415,97.611313 217.683563,149.254395 217.309814,201.383240 
	C216.286911,202.375763 215.632950,202.882263 214.978989,203.388763 
	C214.302078,203.211456 213.625183,203.034134 212.473175,202.499023 
	C203.921967,199.312088 195.845856,196.482941 187.769730,193.653778 
	C187.374405,193.549026 186.979065,193.444290 186.032471,193.058380 
	C182.940079,192.150894 180.353409,190.852798 177.866196,191.021408 
	C169.667007,191.577286 164.808075,188.346664 163.666931,180.036804 
	C163.651688,178.628952 163.636444,177.221115 163.960419,175.245560 
	C166.083618,172.138016 168.306152,169.795227 169.555176,167.015060 
	C171.775970,162.071976 173.407074,156.863983 175.284851,151.766800 
	C175.485062,150.774826 175.685287,149.782852 176.334030,148.406403 
	C176.970032,147.249802 177.157516,146.477692 177.444916,145.457596 
	C177.377029,144.806030 177.209244,144.402420 177.041458,143.998825 
	C177.399673,141.638245 177.757874,139.277679 178.497192,136.461731 
	C178.972977,134.675217 179.067642,133.344101 179.208817,131.718292 
	C179.287369,131.027481 179.319397,130.631332 179.659760,130.050323 
	C179.978409,127.243622 179.988724,124.621780 180.030991,121.550781 
	C180.038193,118.401337 180.013428,115.701035 180.202667,112.753059 
	C180.092407,110.925339 179.768158,109.345299 179.413635,107.466934 
	C179.315475,106.774750 179.247604,106.380898 179.398026,105.790131 
	C179.169067,104.682671 178.721802,103.772125 178.274536,102.861580 
	C177.913696,100.354797 177.552872,97.848015 177.365387,94.671204 
	C177.045532,93.322014 176.552322,92.642845 176.059113,91.963684 
	C175.862167,91.027519 175.665207,90.091354 175.633102,88.434387 
	C173.910187,84.114868 172.022430,80.516151 170.134689,76.917435 
	C169.509186,76.121941 168.883682,75.326439 168.179062,73.900551 
	C163.144135,67.284828 157.363770,62.955120 149.021912,63.768654 
	C148.317368,63.732368 147.612823,63.696083 146.405853,63.269455 
	C144.498016,62.469536 143.091812,61.707371 141.687271,61.710403 
	C135.010284,61.724804 128.087631,59.329212 121.790894,63.520424 
	C121.090103,63.623699 120.389313,63.726974 119.078079,63.579002 
	C111.240753,64.457695 104.401085,66.348511 99.876747,72.788895 
	C99.876747,72.788895 99.594162,73.062828 99.065399,73.064041 
	C98.114944,73.786163 97.693245,74.507072 97.271545,75.227989 
	C97.271545,75.227989 97.137871,75.135818 96.833862,75.150513 
	C95.450333,76.876076 94.370796,78.586945 93.291260,80.297821 
	C93.147545,80.636780 93.003822,80.975739 92.373611,81.580971 
	C90.791122,84.382782 89.695107,86.918320 88.599091,89.453865 
	C88.539604,89.796288 88.480110,90.138718 88.040550,90.932190 
	C87.075859,94.252769 86.491234,97.122284 85.906616,99.991806 
z"/>
<path fill="#FAFAFA" opacity="1.000000" stroke="none" 
	d="
M150.031113,168.041260 
	C149.899857,168.428085 149.768585,168.814896 149.193634,169.671661 
	C148.952835,173.502625 149.155701,176.863632 149.358582,180.224655 
	C149.497025,181.558640 149.635468,182.892609 149.515137,184.883759 
	C150.870056,189.971756 152.179092,194.552078 154.244598,198.761154 
	C155.092117,200.488251 157.571671,201.414459 159.308823,202.704987 
	C159.667542,202.795914 160.026276,202.886841 160.702911,203.443573 
	C163.681061,204.267776 166.341324,204.626160 169.001572,204.984558 
	C170.659241,205.104141 172.316925,205.223724 174.493683,205.735916 
	C177.005966,206.438049 178.999176,206.747589 180.992371,207.057129 
	C182.746201,207.324783 184.500031,207.592422 186.765579,208.172546 
	C188.248215,208.776154 189.219131,209.067291 190.190048,209.358429 
	C190.586639,209.511536 190.983231,209.664627 191.931915,210.048950 
	C194.665817,210.923615 196.847626,211.567062 199.029449,212.210526 
	C199.304733,212.401138 199.607513,212.523941 200.301346,212.892090 
	C201.837082,213.587341 203.009293,213.969452 204.181503,214.351562 
	C204.579636,214.507629 204.977783,214.663696 205.826050,215.189423 
	C206.867859,216.793381 207.459534,218.027679 208.051208,219.261963 
	C207.587570,219.210724 207.123947,219.159470 205.995575,218.920029 
	C157.005753,218.685608 108.680649,218.636398 60.355534,218.619949 
	C59.583130,218.619675 58.810589,219.021164 58.038113,219.235168 
	C57.572170,219.193558 57.106228,219.151962 56.181145,218.817261 
	C56.243355,217.419601 56.764713,216.315018 57.286072,215.210449 
	C58.155415,214.959290 59.024761,214.708115 60.530678,214.556488 
	C62.506161,213.882980 63.845074,213.109924 65.183990,212.336868 
	C65.789818,212.128555 66.395645,211.920242 67.598022,211.772156 
	C68.855659,211.328323 69.516747,210.824234 70.177834,210.320129 
	C70.876244,210.172073 71.574661,210.024017 72.795746,210.082077 
	C74.565292,209.554230 75.812180,208.820236 77.059067,208.086258 
	C77.710136,207.941513 78.361198,207.796753 79.751480,207.800415 
	C83.401581,207.116516 86.312462,206.284225 89.223351,205.451935 
	C90.231842,205.342865 91.240334,205.233810 92.926102,205.361389 
	C95.415421,205.607834 97.357460,206.043579 99.012329,205.538483 
	C102.418327,204.498901 106.660034,204.392349 107.656967,199.690948 
	C108.176140,199.056671 108.695320,198.422394 109.709747,197.438080 
	C112.718025,193.089722 115.604454,189.203568 114.134125,184.008621 
	C114.222893,182.360306 114.311661,180.711975 114.766655,178.474609 
	C115.812683,174.014618 117.412674,169.943726 112.815468,167.219269 
	C112.815468,167.219269 112.910736,167.065033 112.887962,166.773331 
	C110.756454,162.999207 108.548546,159.571915 106.571510,156.016266 
	C105.085983,153.344589 103.896950,150.508057 102.575920,147.744904 
	C102.461029,147.056030 102.346138,146.367142 102.435684,145.128448 
	C101.898911,142.980591 101.157715,141.382553 100.416512,139.784515 
	C100.323280,139.087326 100.230049,138.390137 100.370361,137.016998 
	C100.637138,125.995728 100.682823,115.650375 100.678246,105.305054 
	C100.677910,104.539093 100.316170,103.773293 100.122437,103.007416 
	C100.148361,102.599731 100.174294,102.192039 100.591812,101.374039 
	C102.212868,97.211838 103.442329,93.459953 104.671783,89.708069 
	C106.470947,87.463715 108.270111,85.219368 110.696861,82.965302 
	C112.275291,82.135040 113.226135,81.314499 114.176987,80.493958 
	C114.856606,80.262047 115.536240,80.030151 116.692055,80.038612 
	C118.483589,79.611313 119.798927,78.943657 121.114265,78.276001 
	C122.110611,78.097313 123.106949,77.918640 124.796417,77.815994 
	C125.991867,77.899147 126.494179,77.906281 127.187424,78.119492 
	C127.931458,78.051537 128.484558,77.777504 129.037674,77.503479 
	C130.084473,77.448601 131.131271,77.393723 132.742950,77.751709 
	C135.206329,78.081551 137.104828,77.998528 139.427704,77.923615 
	C140.954514,77.815216 142.056961,77.698708 143.159424,77.582207 
	C144.474182,77.752533 145.788940,77.922859 147.550812,78.541847 
	C149.986282,79.670906 151.974640,80.351311 154.201416,81.271637 
	C156.706543,85.617752 158.973236,89.723938 161.150314,94.189148 
	C161.636322,95.733780 162.211945,96.919380 162.787567,98.104980 
	C163.209702,100.444244 163.631851,102.783508 163.994324,105.828072 
	C163.929214,107.022186 163.923798,107.511002 163.669235,108.324738 
	C163.573441,115.766830 163.726776,122.883995 163.867172,130.397797 
	C163.984207,131.557083 164.114182,132.319733 164.244141,133.082367 
	C163.838013,135.767929 163.431900,138.453491 162.595764,141.606567 
	C162.028442,143.371094 161.891129,144.668106 161.753830,145.965118 
	C161.681274,146.368164 161.608734,146.771194 161.165009,147.636993 
	C158.602005,153.148102 156.410172,158.196472 154.218323,163.244827 
	C154.218323,163.244827 154.104675,163.616409 153.642593,163.770447 
	C152.130707,165.296722 151.080902,166.668991 150.031113,168.041260 
z"/>
<path fill="#4E4E4E" opacity="1.000000" stroke="none" 
	d="
M58.345997,219.509079 
	C58.810589,219.021164 59.583130,218.619675 60.355534,218.619949 
	C108.680649,218.636398 157.005753,218.685608 205.649536,218.983185 
	C204.714615,219.488281 203.461166,219.962906 202.207336,219.963928 
	C155.014145,220.002335 107.820908,219.998032 60.627678,219.988907 
	C59.969734,219.988785 59.311813,219.854599 58.345997,219.509079 
z"/>
<path fill="#9F9F9F" opacity="1.000000" stroke="none" 
	d="
M85.762146,135.744965 
	C85.222794,135.884598 84.608932,135.622025 84.548744,135.265884 
	C82.732994,124.521126 81.928383,113.780243 85.283997,102.954422 
	C85.725693,113.643333 85.835709,124.471237 85.762146,135.744965 
z"/>
<path fill="#959595" opacity="1.000000" stroke="none" 
	d="
M99.868317,103.297104 
	C100.316170,103.773293 100.677910,104.539093 100.678246,105.305054 
	C100.682823,115.650375 100.637138,125.995728 100.362396,136.664993 
	C97.482269,125.892349 97.053894,114.762245 99.868317,103.297104 
z"/>
<path fill="#5E5E5E" opacity="1.000000" stroke="none" 
	d="
M163.425446,180.316940 
	C164.808075,188.346664 169.667007,191.577286 177.866196,191.021408 
	C180.353409,190.852798 182.940079,192.150894 185.724442,193.060944 
	C179.683472,192.646805 173.081039,192.850662 167.273773,190.801270 
	C164.994064,189.996765 164.494324,184.148407 163.425446,180.316940 
z"/>
<path fill="#9F9F9F" opacity="1.000000" stroke="none" 
	d="
M122.243515,63.697189 
	C128.087631,59.329212 135.010284,61.724804 141.687271,61.710403 
	C143.091812,61.707371 144.498016,62.469536 146.059479,63.200684 
	C138.375717,63.639492 130.535934,63.756721 122.243515,63.697189 
z"/>
<path fill="#5E5E5E" opacity="1.000000" stroke="none" 
	d="
M174.991852,151.914719 
	C173.407074,156.863983 171.775970,162.071976 169.555176,167.015060 
	C168.306152,169.795227 166.083618,172.138016 163.985626,174.823288 
	C163.557007,174.541092 163.211151,173.993637 163.361572,173.703384 
	C167.108856,166.473312 170.908493,159.270370 174.991852,151.914719 
z"/>
<path fill="#5E5E5E" opacity="1.000000" stroke="none" 
	d="
M187.895538,193.971695 
	C195.845856,196.482941 203.921967,199.312088 212.125824,202.456558 
	C207.367416,201.107666 202.472687,199.468140 197.598175,197.770538 
	C194.390823,196.653519 191.212616,195.452835 187.895538,193.971695 
z"/>
<path fill="#A3A3A3" opacity="1.000000" stroke="none" 
	d="
M163.880112,130.001160 
	C163.726776,122.883995 163.573441,115.766830 163.966736,108.330414 
	C164.711456,108.000511 164.909546,107.989845 165.107635,107.979179 
	C165.353455,110.385628 165.599289,112.792068 165.668427,115.795868 
	C165.621399,117.264633 165.751053,118.136063 165.880707,119.007484 
	C165.607513,122.389259 165.334335,125.771027 164.759277,129.566620 
	C164.264984,129.987350 164.072540,129.994247 163.880112,130.001160 
z"/>
<path fill="#9F9F9F" opacity="1.000000" stroke="none" 
	d="
M45.989368,202.266266 
	C51.746857,200.190033 57.316704,198.475021 62.887859,196.764297 
	C64.431374,196.290329 65.978798,195.829086 67.752769,195.602570 
	C61.328423,198.830307 54.693493,201.859589 47.975105,204.690842 
	C47.605984,204.846390 46.542500,203.354294 45.989368,202.266266 
z"/>
<path fill="#959595" opacity="1.000000" stroke="none" 
	d="
M102.410622,148.106293 
	C103.896950,150.508057 105.085983,153.344589 106.571510,156.016266 
	C108.548546,159.571915 110.756454,162.999207 112.822708,166.836243 
	C106.386978,162.571182 104.213936,155.576950 102.410622,148.106293 
z"/>
<path fill="#9F9F9F" opacity="1.000000" stroke="none" 
	d="
M149.269424,64.042542 
	C157.363770,62.955120 163.144135,67.284828 168.063293,73.617630 
	C162.520645,69.475288 156.760452,65.473061 149.269424,64.042542 
z"/>
<path fill="#A3A3A3" opacity="1.000000" stroke="none" 
	d="
M159.241333,202.368286 
	C157.571671,201.414459 155.092117,200.488251 154.244598,198.761154 
	C152.179092,194.552078 150.870056,189.971756 149.512604,185.286942 
	C152.903809,190.699173 156.038818,196.365387 159.241333,202.368286 
z"/>
<path fill="#9F9F9F" opacity="1.000000" stroke="none" 
	d="
M100.224701,72.843163 
	C104.401085,66.348511 111.240753,64.457695 118.723312,63.578484 
	C112.843544,66.851952 106.708107,69.874687 100.224701,72.843163 
z"/>
<path fill="#9F9F9F" opacity="1.000000" stroke="none" 
	d="
M95.483902,167.908630 
	C92.926178,162.961823 90.492615,157.672134 88.245827,152.002686 
	C90.824417,156.937210 93.216248,162.251465 95.483902,167.908630 
z"/>
<path fill="#959595" opacity="1.000000" stroke="none" 
	d="
M107.306778,199.757355 
	C106.660034,204.392349 102.418327,204.498901 99.012329,205.538483 
	C97.357460,206.043579 95.415421,205.607834 93.306702,205.353027 
	C97.658867,203.346603 102.307724,201.585175 107.306778,199.757355 
z"/>
<path fill="#A3A3A3" opacity="1.000000" stroke="none" 
	d="
M154.559540,163.185028 
	C156.410172,158.196472 158.602005,153.148102 161.072357,147.929840 
	C161.678650,153.921844 158.252625,158.507965 154.559540,163.185028 
z"/>
<path fill="#555555" opacity="1.000000" stroke="none" 
	d="
M161.239929,93.830116 
	C158.973236,89.723938 156.706543,85.617752 154.221222,81.011505 
	C154.005600,80.337540 154.008621,80.163651 154.011627,79.989761 
	C159.437561,82.617035 161.552689,87.321014 161.925232,93.394630 
	C161.694794,93.815773 161.239929,93.830116 161.239929,93.830116 
z"/>
<path fill="#959595" opacity="1.000000" stroke="none" 
	d="
M113.866699,184.253540 
	C115.604454,189.203568 112.718025,193.089722 109.885704,197.185577 
	C110.910706,193.021545 112.254997,188.759995 113.866699,184.253540 
z"/>
<path fill="#9F9F9F" opacity="1.000000" stroke="none" 
	d="
M77.284760,193.534042 
	C81.121597,192.374435 85.262939,191.397018 89.696548,190.662033 
	C85.855637,191.841721 81.722450,192.778976 77.284760,193.534042 
z"/>
<path fill="#959595" opacity="1.000000" stroke="none" 
	d="
M104.329193,89.790604 
	C103.442329,93.459953 102.212868,97.211838 100.654121,101.073738 
	C101.545425,97.413551 102.766014,93.643341 104.329193,89.790604 
z"/>
<path fill="#9F9F9F" opacity="1.000000" stroke="none" 
	d="
M93.233345,190.911560 
	C94.919647,188.157471 96.972656,185.576126 99.357132,182.917633 
	C99.877296,187.226700 99.043831,190.857986 93.233345,190.911560 
z"/>
<path fill="#9F9F9F" opacity="1.000000" stroke="none" 
	d="
M170.063950,77.282684 
	C172.022430,80.516151 173.910187,84.114868 175.609924,88.075623 
	C173.612335,84.841080 171.802765,81.244507 170.063950,77.282684 
z"/>
<path fill="#959595" opacity="1.000000" stroke="none" 
	d="
M112.882706,167.620941 
	C117.412674,169.943726 115.812683,174.014618 114.814018,178.065811 
	C113.980080,174.838226 113.465012,171.430420 112.882706,167.620941 
z"/>
<path fill="#9F9F9F" opacity="1.000000" stroke="none" 
	d="
M100.117416,180.697784 
	C98.935661,177.840912 97.990158,174.691940 97.130402,171.155609 
	C101.245232,173.009506 101.024521,176.634338 100.117416,180.697784 
z"/>
<path fill="#959595" opacity="1.000000" stroke="none" 
	d="
M88.820648,205.282196 
	C86.312462,206.284225 83.401581,207.116516 80.085617,207.782288 
	C82.593002,206.781357 85.505470,205.946915 88.820648,205.282196 
z"/>
<path fill="#9F9F9F" opacity="1.000000" stroke="none" 
	d="
M88.392487,149.732910 
	C87.260002,146.851410 86.314507,143.687241 85.612427,140.270081 
	C86.763710,143.161484 87.671585,146.305847 88.392487,149.732910 
z"/>
<path fill="#A3A3A3" opacity="1.000000" stroke="none" 
	d="
M149.554016,179.784744 
	C149.155701,176.863632 148.952835,173.502625 149.069809,169.951874 
	C149.509598,172.956375 149.629532,176.150604 149.554016,179.784744 
z"/>
<path fill="#9F9F9F" opacity="1.000000" stroke="none" 
	d="
M86.165993,99.754562 
	C86.491234,97.122284 87.075859,94.252769 87.955315,91.178978 
	C87.641884,93.822243 87.033630,96.669785 86.165993,99.754562 
z"/>
<path fill="#4E4E4E" opacity="1.000000" stroke="none" 
	d="
M208.257996,219.517914 
	C207.459534,218.027679 206.867859,216.793381 206.147415,215.216568 
	C208.049820,215.672989 210.080994,216.471939 212.112183,217.270874 
	C212.068558,217.767044 212.024933,218.263229 211.981308,218.759399 
	C210.809128,219.097549 209.636963,219.435699 208.257996,219.517914 
z"/>
<path fill="#5E5E5E" opacity="1.000000" stroke="none" 
	d="
M179.988678,113.000740 
	C180.013428,115.701035 180.038193,118.401337 179.720139,121.560219 
	C179.170013,122.017944 178.962677,122.017075 178.755356,122.016212 
	C178.602997,119.215172 178.450638,116.414131 178.832886,113.297974 
	C179.574570,112.988808 179.781631,112.994774 179.988678,113.000740 
z"/>
<path fill="#4E4E4E" opacity="1.000000" stroke="none" 
	d="
M56.913971,215.110748 
	C56.764713,216.315018 56.243355,217.419601 55.836334,218.889984 
	C54.715950,219.395538 53.481228,219.535278 52.246510,219.675018 
	C52.030396,219.122498 51.814281,218.569977 51.598167,218.017456 
	C53.246067,217.015320 54.893967,216.013168 56.913971,215.110748 
z"/>
<path fill="#A3A3A3" opacity="1.000000" stroke="none" 
	d="
M168.754486,204.699844 
	C166.341324,204.626160 163.681061,204.267776 160.956085,203.558350 
	C163.430038,203.609924 165.968719,204.012527 168.754486,204.699844 
z"/>
<path fill="#9F9F9F" opacity="1.000000" stroke="none" 
	d="
M178.731552,122.418816 
	C178.962677,122.017075 179.170013,122.017944 179.688187,122.009369 
	C179.988724,124.621780 179.978409,127.243622 179.478729,129.616730 
	C178.774292,128.783630 178.559219,128.199249 178.344116,127.614883 
	C178.465332,126.017059 178.586548,124.419243 178.731552,122.418816 
z"/>
<path fill="#9F9F9F" opacity="1.000000" stroke="none" 
	d="
M88.920197,89.347336 
	C89.695107,86.918320 90.791122,84.382782 92.230278,81.817276 
	C91.462715,84.271805 90.352013,86.756302 88.920197,89.347336 
z"/>
<path fill="#A3A3A3" opacity="1.000000" stroke="none" 
	d="
M180.858002,206.706451 
	C178.999176,206.747589 177.005966,206.438049 174.899704,205.820679 
	C176.765640,205.793839 178.744629,206.074799 180.858002,206.706451 
z"/>
<path fill="#4E4E4E" opacity="1.000000" stroke="none" 
	d="
M198.863190,211.905380 
	C196.847626,211.567062 194.665817,210.923615 192.254425,210.035858 
	C194.248871,210.394440 196.472916,210.997330 198.863190,211.905380 
z"/>
<path fill="#959595" opacity="1.000000" stroke="none" 
	d="
M100.242020,140.130310 
	C101.157715,141.382553 101.898911,142.980591 102.401947,144.780609 
	C101.465027,143.480423 100.766273,141.978271 100.242020,140.130310 
z"/>
<path fill="#AEAEAE" opacity="1.000000" stroke="none" 
	d="
M153.674500,79.859756 
	C154.008621,80.163651 154.005600,80.337540 153.982788,80.771576 
	C151.974640,80.351311 149.986282,79.670906 147.934296,78.650406 
	C149.692886,78.783447 151.515137,79.256599 153.674500,79.859756 
z"/>
<path fill="#AEAEAE" opacity="1.000000" stroke="none" 
	d="
M139.003342,77.915504 
	C137.104828,77.998528 135.206329,78.081551 133.129730,77.830574 
	C134.707840,77.286194 136.464020,77.075813 138.605011,77.129257 
	C138.994308,77.567230 138.998825,77.741364 139.003342,77.915504 
z"/>
<path fill="#9F9F9F" opacity="1.000000" stroke="none" 
	d="
M70.135040,195.696960 
	C71.462402,194.771484 73.128326,194.002594 75.126976,193.425797 
	C73.797676,194.363113 72.135643,195.108322 70.135040,195.696960 
z"/>
<path fill="#9F9F9F" opacity="1.000000" stroke="none" 
	d="
M93.629692,80.274017 
	C94.370796,78.586945 95.450333,76.876076 96.879745,75.217491 
	C96.142456,76.929916 95.055290,78.590065 93.629692,80.274017 
z"/>
<path fill="#AEAEAE" opacity="1.000000" stroke="none" 
	d="
M120.779839,78.117218 
	C119.798927,78.943657 118.483589,79.611313 117.049622,79.993889 
	C118.102470,79.125351 119.273941,78.541893 120.779839,78.117218 
z"/>
<path fill="#A3A3A3" opacity="1.000000" stroke="none" 
	d="
M150.371216,168.026779 
	C151.080902,166.668991 152.130707,165.296722 153.521240,163.922165 
	C152.811737,165.284012 151.761520,166.648163 150.371216,168.026779 
z"/>
<path fill="#9F9F9F" opacity="1.000000" stroke="none" 
	d="
M180.202667,112.753059 
	C179.781631,112.994774 179.574570,112.988808 179.056686,112.982773 
	C178.647873,112.017319 178.549911,111.051926 178.678802,109.327164 
	C179.085083,108.300285 179.264496,108.032768 179.443909,107.765259 
	C179.768158,109.345299 180.092407,110.925339 180.202667,112.753059 
z"/>
<path fill="#959595" opacity="1.000000" stroke="none" 
	d="
M64.857780,212.197983 
	C63.845074,213.109924 62.506161,213.882980 60.859543,214.472382 
	C61.878418,213.545532 63.204998,212.802307 64.857780,212.197983 
z"/>
<path fill="#555555" opacity="1.000000" stroke="none" 
	d="
M139.427704,77.923615 
	C138.998825,77.741364 138.994308,77.567230 139.004242,77.132172 
	C140.348511,76.902000 141.678314,76.932747 143.083771,77.272842 
	C142.056961,77.698708 140.954514,77.815216 139.427704,77.923615 
z"/>
<path fill="#5E5E5E" opacity="1.000000" stroke="none" 
	d="
M178.117767,127.814720 
	C178.559219,128.199249 178.774292,128.783630 179.170395,129.801605 
	C179.319397,130.631332 179.287369,131.027481 178.915207,131.699829 
	C178.379166,131.984253 178.183273,131.992447 177.987381,132.000626 
	C177.955399,130.671936 177.923401,129.343246 178.117767,127.814720 
z"/>
<path fill="#A3A3A3" opacity="1.000000" stroke="none" 
	d="
M161.150314,94.189148 
	C161.239929,93.830116 161.694794,93.815773 161.921234,93.793129 
	C162.432983,94.966850 162.718277,96.163208 162.895569,97.732269 
	C162.211945,96.919380 161.636322,95.733780 161.150314,94.189148 
z"/>
<path fill="#A3A3A3" opacity="1.000000" stroke="none" 
	d="
M162.157196,145.900452 
	C161.891129,144.668106 162.028442,143.371094 162.472534,141.982178 
	C162.706421,143.205460 162.633499,144.520615 162.157196,145.900452 
z"/>
<path fill="#9F9F9F" opacity="1.000000" stroke="none" 
	d="
M177.950470,132.421417 
	C178.183273,131.992447 178.379166,131.984253 178.868683,131.994507 
	C179.067642,133.344101 178.972977,134.675217 178.565369,136.069366 
	C178.139450,135.035645 178.026489,133.938934 177.950470,132.421417 
z"/>
<path fill="#959595" opacity="1.000000" stroke="none" 
	d="
M76.737564,207.956085 
	C75.812180,208.820236 74.565292,209.554230 73.151062,210.044495 
	C74.127838,209.142487 75.271950,208.484192 76.737564,207.956085 
z"/>
<path fill="#AEAEAE" opacity="1.000000" stroke="none" 
	d="
M113.869629,80.372078 
	C113.226135,81.314499 112.275291,82.135040 111.001663,82.841751 
	C111.640007,81.902000 112.601135,81.076096 113.869629,80.372078 
z"/>
<path fill="#4E4E4E" opacity="1.000000" stroke="none" 
	d="
M204.076080,214.025360 
	C203.009293,213.969452 201.837082,213.587341 200.547974,212.894501 
	C201.610916,212.955566 202.790771,213.327347 204.076080,214.025360 
z"/>
<path fill="#4E4E4E" opacity="1.000000" stroke="none" 
	d="
M190.175415,209.063843 
	C189.219131,209.067291 188.248215,208.776154 187.147949,208.179932 
	C188.065979,208.172989 189.113373,208.471130 190.175415,209.063843 
z"/>
<path fill="#5E5E5E" opacity="1.000000" stroke="none" 
	d="
M176.762985,143.937256 
	C177.209244,144.402420 177.377029,144.806030 177.202072,145.502197 
	C176.559448,145.953888 176.239990,146.024445 175.900955,146.006424 
	C176.095474,145.296173 176.289993,144.585922 176.762985,143.937256 
z"/>
<path fill="#9F9F9F" opacity="1.000000" stroke="none" 
	d="
M215.128143,203.800812 
	C215.632950,202.882263 216.286911,202.375763 217.269516,201.837463 
	C218.164261,203.899765 218.169113,205.452728 215.128143,203.800812 
z"/>
<path fill="#474747" opacity="1.000000" stroke="none" 
	d="
M163.867172,130.397797 
	C164.072540,129.994247 164.264984,129.987350 164.745972,129.993851 
	C164.978439,131.018341 164.922348,132.029434 164.555206,133.061432 
	C164.114182,132.319733 163.984207,131.557083 163.867172,130.397797 
z"/>
<path fill="#474747" opacity="1.000000" stroke="none" 
	d="
M166.126617,118.827133 
	C165.751053,118.136063 165.621399,117.264633 165.694336,116.194168 
	C166.055466,116.879013 166.213989,117.762894 166.126617,118.827133 
z"/>
<path fill="#5E5E5E" opacity="1.000000" stroke="none" 
	d="
M179.413635,107.466934 
	C179.264496,108.032768 179.085083,108.300285 178.631439,108.966736 
	C178.104523,108.377335 177.851837,107.389008 178.091003,106.212128 
	C178.781815,106.011406 178.980774,105.999229 179.179718,105.987045 
	C179.247604,106.380898 179.315475,106.774750 179.413635,107.466934 
z"/>
<path fill="#9F9F9F" opacity="1.000000" stroke="none" 
	d="
M179.398026,105.790131 
	C178.980774,105.999229 178.781815,106.011406 178.284088,106.011414 
	C177.958694,105.193138 177.932037,104.387039 178.089966,103.221268 
	C178.721802,103.772125 179.169067,104.682671 179.398026,105.790131 
z"/>
<path fill="#9F9F9F" opacity="1.000000" stroke="none" 
	d="
M175.832932,146.360809 
	C176.239990,146.024445 176.559448,145.953888 177.102173,145.750153 
	C177.157516,146.477692 176.970032,147.249802 176.444870,148.042603 
	C175.993088,147.613907 175.878998,147.164551 175.832932,146.360809 
z"/>
<path fill="#959595" opacity="1.000000" stroke="none" 
	d="
M69.869019,210.159637 
	C69.516747,210.824234 68.855659,211.328323 67.896111,211.654541 
	C68.251831,210.984161 68.906013,210.491638 69.869019,210.159637 
z"/>
<path fill="#474747" opacity="1.000000" stroke="none" 
	d="
M165.331314,107.827164 
	C164.909546,107.989845 164.711456,108.000511 164.215881,108.005493 
	C163.923798,107.511002 163.929214,107.022186 164.122589,106.218292 
	C164.725357,106.493843 165.140167,107.084496 165.331314,107.827164 
z"/>
<path fill="#9F9F9F" opacity="1.000000" stroke="none" 
	d="
M175.895538,92.250412 
	C176.552322,92.642845 177.045532,93.322014 177.277649,94.268448 
	C176.588394,93.869530 176.160187,93.203339 175.895538,92.250412 
z"/>
<path fill="#AEAEAE" opacity="1.000000" stroke="none" 
	d="
M128.898575,77.238411 
	C128.484558,77.777504 127.931458,78.051537 127.194748,77.854965 
	C127.001381,77.208229 126.991608,77.032082 126.981827,76.855942 
	C127.574379,76.895073 128.166931,76.934204 128.898575,77.238411 
z"/>
<path fill="#555555" opacity="1.000000" stroke="none" 
	d="
M126.833878,76.642883 
	C126.991608,77.032082 127.001381,77.208229 127.003822,77.648888 
	C126.494179,77.906281 125.991867,77.899147 125.160889,77.707352 
	C125.450127,77.158401 126.068031,76.794121 126.833878,76.642883 
z"/>
<path fill="#9F9F9F" opacity="1.000000" stroke="none" 
	d="
M97.586433,75.217392 
	C97.693245,74.507072 98.114944,73.786163 98.882874,73.137558 
	C98.786507,73.875504 98.343918,74.541153 97.586433,75.217392 
z"/>
</svg>