<svg width="26" height="26" viewBox="0 0 26 26" fill="none" xmlns="http://www.w3.org/2000/svg">
<path fill-rule="evenodd" clip-rule="evenodd" d="M25.9999 12.8524C25.9999 19.9506 20.2457 25.7048 13.1475 25.7048C6.04937 25.7048 0.295166 19.9506 0.295166 12.8524C0.295166 5.75421 6.04937 0 13.1475 0C20.2457 0 25.9999 5.75421 25.9999 12.8524ZM13.6081 9.4882C12.358 10.0082 9.85961 11.0843 6.11288 12.7167C5.50447 12.9587 5.18576 13.1954 5.15675 13.4268C5.10771 13.8179 5.59753 13.9719 6.26452 14.1817C6.35525 14.2102 6.44925 14.2398 6.54563 14.2711C7.20185 14.4844 8.08458 14.734 8.54348 14.7439C8.95974 14.7529 9.42434 14.5812 9.93727 14.229C13.438 11.866 15.245 10.6716 15.3585 10.6458C15.4385 10.6276 15.5494 10.6048 15.6246 10.6716C15.6997 10.7384 15.6923 10.8649 15.6844 10.8988C15.6359 11.1057 13.7132 12.8932 12.7182 13.8182C12.408 14.1066 12.188 14.3112 12.143 14.3579C12.0422 14.4625 11.9395 14.5615 11.8409 14.6567C11.2312 15.2444 10.774 15.6851 11.8662 16.4048C12.391 16.7506 12.811 17.0366 13.2299 17.322C13.6875 17.6336 14.1439 17.9444 14.7344 18.3314C14.8848 18.4301 15.0285 18.5325 15.1685 18.6322C15.7009 19.0119 16.1794 19.3529 16.7704 19.2985C17.1138 19.2669 17.4686 18.944 17.6487 17.9809C18.0745 15.7047 18.9114 10.7729 19.1048 8.74066C19.1218 8.56261 19.1005 8.33474 19.0834 8.23471C19.0662 8.13468 19.0305 7.99216 18.9004 7.88665C18.7465 7.7617 18.5087 7.73535 18.4024 7.73713C17.919 7.74574 17.1773 8.00363 13.6081 9.4882Z" fill="#222222"/>
</svg>
