<svg width="28" height="28" viewBox="0 0 28 28" fill="#0E0E0E" xmlns="http://www.w3.org/2000/svg">
<path fill-rule="evenodd" clip-rule="evenodd" d="M14 0C6.26801 0 0 6.26801 0 14C0 21.732 6.26801 28 14 28C21.732 28 28 21.732 28 14C28 6.26801 21.732 0 14 0ZM18.9972 21.0616C18.9972 21.0616 18.6195 21.9848 17.6124 21.5442L13.8356 18.6486L11.4017 20.8518C11.4017 20.8518 11.2128 20.9986 11.003 20.9147C11.003 20.9147 10.8142 20.8937 10.6044 20.2013C10.3736 19.4879 9.24052 15.7741 9.24052 15.7741L5.48472 14.5152C5.48472 14.5152 4.9182 14.3053 4.85525 13.8647C4.79231 13.4241 5.5057 13.1723 5.5057 13.1723L20.424 7.3183C20.424 7.3183 21.641 6.77276 21.6619 7.67499L18.9972 21.0616ZM18.7662 10.046C18.7871 9.73123 18.2626 10.046 18.2626 10.046L10.0166 15.2915C9.89071 15.3754 9.84875 15.5223 9.89071 15.6482L10.8769 18.8794C10.9398 19.0683 11.2126 19.0473 11.2546 18.8375L11.4854 16.8652C11.4854 16.7812 11.5273 16.7183 11.5903 16.6763C12.3876 15.9629 18.3255 10.6335 18.5773 10.3817C18.8501 10.0879 18.7662 10.046 18.7662 10.046Z"/>
</svg>
