<svg width="100%" height="100%" viewBox="0 0 28 28" fill="#0E0E0E" xmlns="http://www.w3.org/2000/svg">
<path fill-rule="evenodd" clip-rule="evenodd" d="M14 0C6.26801 0 0 6.26801 0 14C0 21.732 6.26801 28 14 28C21.732 28 28 21.732 28 14C28 6.26801 21.732 0 14 0ZM20.4673 10.94V10.4897C21.1652 9.99439 21.7506 9.36399 22.2009 8.64354C21.5705 8.93622 20.895 9.11634 20.1746 9.20639C20.895 8.75611 21.4579 8.08068 21.7281 7.24766C21.0301 7.65291 20.2872 7.9456 19.4766 8.1032C18.8463 7.42777 17.9232 7 16.91 7C14.9513 7 13.3753 8.576 13.3753 10.5347C13.3753 10.8049 13.3978 11.0976 13.4654 11.3452C10.5385 11.1876 7.92685 9.79176 6.19325 7.65291C5.90057 8.17074 5.72046 8.77862 5.72046 9.43154C5.72046 10.6698 6.35085 11.7505 7.29645 12.3809C6.71108 12.3584 6.17074 12.2008 5.69794 11.9306V11.9756C5.69794 13.6867 6.91371 15.1051 8.53473 15.4203C8.24205 15.5104 7.92685 15.5554 7.61165 15.5554C7.36399 15.5554 7.16137 15.5329 6.93622 15.4879C7.36399 16.8837 8.66982 17.9194 10.2233 17.9419C9.00753 18.8875 7.47657 19.4504 5.83303 19.4504C5.56286 19.4504 5.27017 19.4279 5 19.4053C6.576 20.396 8.42216 20.9813 10.4259 20.9813C16.91 20.9813 20.4673 15.6004 20.4673 10.94Z"/>
</svg>
