<svg width="28" height="24" viewBox="0 0 28 24" fill="none" xmlns="http://www.w3.org/2000/svg">
<path d="M24.3897 6.2443C24.4006 6.48547 24.4078 6.72914 24.4078 6.97531C24.4078 14.4278 18.9418 23.0237 8.94874 23.0237C5.88053 23.0237 3.02536 22.0878 0.621582 20.4871C1.04528 20.5383 1.47982 20.567 1.91796 20.567C4.46137 20.567 6.80496 19.6648 8.66467 18.1516C6.28737 18.1079 4.28082 16.4759 3.58989 14.2354C3.91971 14.3004 4.26035 14.3379 4.61183 14.3379C5.10655 14.3379 5.58562 14.2679 6.04182 14.1392C3.55739 13.6206 1.68324 11.3414 1.68324 8.60977V8.53854C2.41629 8.9609 3.25647 9.21457 4.1448 9.24331C2.68712 8.23114 1.72898 6.50547 1.72898 4.54737C1.72898 3.51521 1.9962 2.54553 2.46444 1.71331C5.14386 5.12593 9.14735 7.37143 13.6624 7.6076C13.5685 7.19274 13.5216 6.76288 13.5216 6.32178C13.5216 3.20531 15.953 0.681152 18.9539 0.681152C20.5163 0.681152 21.9294 1.36592 22.9188 2.46306C24.155 2.20939 25.3202 1.74205 26.3698 1.09352C25.9666 2.41183 25.1023 3.51646 23.9805 4.21248C25.0807 4.07752 26.1279 3.77512 27.1017 3.32527C26.3734 4.4549 25.4526 5.44832 24.3897 6.2443Z" fill="#222222"/>
</svg>
