<svg width="100%" height="100%" viewBox="0 0 120 120" fill="none" xmlns="http://www.w3.org/2000/svg">
<path d="M26.246 89.8344V86.8708L39.7169 67.5496H26.169V63.5597H45.6185V66.5233L32.1604 85.8445H45.6955V89.8344H26.246Z" fill="#121113"/>
<path d="M72.5443 76.6971C72.5443 79.5281 72.0141 81.9529 70.9535 83.9714C69.9015 85.9813 68.4646 87.5209 66.6428 88.59C64.8296 89.6591 62.7726 90.1937 60.4718 90.1937C58.1711 90.1937 56.1098 89.6591 54.288 88.59C52.4748 87.5123 51.0379 85.9685 49.9773 83.9585C48.9253 81.94 48.3993 79.5195 48.3993 76.6971C48.3993 73.866 48.9253 71.4455 49.9773 69.4356C51.0379 67.4171 52.4748 65.8732 54.288 64.8041C56.1098 63.735 58.1711 63.2004 60.4718 63.2004C62.7726 63.2004 64.8296 63.735 66.6428 64.8041C68.4646 65.8732 69.9015 67.4171 70.9535 69.4356C72.0141 71.4455 72.5443 73.866 72.5443 76.6971ZM67.759 76.6971C67.759 74.7042 67.4468 73.0235 66.8224 71.6551C66.2066 70.278 65.3513 69.2388 64.2565 68.5375C63.1617 67.8276 61.9002 67.4727 60.4718 67.4727C59.0435 67.4727 57.7819 67.8276 56.6871 68.5375C55.5923 69.2388 54.7328 70.278 54.1084 71.6551C53.4926 73.0235 53.1847 74.7042 53.1847 76.6971C53.1847 78.6899 53.4926 80.3748 54.1084 81.7519C54.7328 83.1203 55.5923 84.1595 56.6871 84.8694C57.7819 85.5708 59.0435 85.9214 60.4718 85.9214C61.9002 85.9214 63.1617 85.5708 64.2565 84.8694C65.3513 84.1595 66.2066 83.1203 66.8224 81.7519C67.4468 80.3748 67.759 78.6899 67.759 76.6971Z" fill="#121113"/>
<path d="M89.9539 89.8344V93.5422H72.9805V89.8344H89.9539Z" fill="#121113"/>
<path d="M29.5386 30.1868L36.3767 50.8679H36.6461L43.4714 30.1868H48.7059L39.443 56.4615H33.5671L24.317 30.1868H29.5386Z" fill="#121113"/>
<path d="M52.1666 56.4615V30.1868H69.2555V34.1767H56.9263V41.3099H68.3702V45.2999H56.9263V52.4716H69.3581V56.4615H52.1666Z" fill="#121113"/>
<path d="M95.7034 30.1868V56.4615H91.4697L79.0893 38.5644H78.8712V56.4615H74.1114V30.1868H78.3708L90.7384 48.0967H90.9694V30.1868H95.7034Z" fill="#121113"/>
<circle cx="60" cy="60" r="57.8698" stroke="#121113" stroke-width="4.26035"/>
</svg>
