<svg width="100%" height="100%" viewBox="0 0 99 34" fill="none" xmlns="http://www.w3.org/2000/svg">
<path id="Path" d="M49.0196 0.6003L42.4051 33.4837H34.405L41.0195 0.6003H49.0196ZM82.6736 21.8333L86.8861 9.48448L89.3058 21.8333H82.6736ZM91.6036 33.4837H99L92.5379 0.6003H85.7135C84.1743 0.6003 82.881 1.55016 82.307 3.01091L70.303 33.4837H78.7039L80.3702 28.5718H90.6339L91.6036 33.4837ZM70.7202 22.7476C70.7537 14.0704 59.4382 13.5891 59.5121 9.71169C59.5393 8.53328 60.595 7.27822 62.906 6.95757C64.0508 6.80027 67.2132 6.67456 70.7955 8.42975L72.1969 1.45269C70.2721 0.712564 67.7954 -1.37092e-06 64.7145 -1.37092e-06C56.806 -1.37092e-06 51.2428 4.46696 51.1985 10.8686C51.1467 15.6038 55.172 18.243 58.1992 19.82C61.3175 21.4307 62.363 22.4659 62.3485 23.9051C62.3263 26.1114 59.8585 27.0881 57.5639 27.1244C53.5405 27.1923 51.208 25.9682 49.3477 25.0466L47.8957 32.2549C49.7674 33.1671 53.2169 33.9597 56.7896 34C65.1968 34 70.6956 29.5841 70.7202 22.7476ZM37.5877 0.6003L24.6267 33.4837H16.1702L9.79153 7.23991C9.4053 5.62723 9.06901 5.03365 7.89201 4.35201C5.96847 3.24082 2.79207 2.20155 0 1.55487L0.188369 0.6003H13.8023C15.535 0.6003 17.095 1.82712 17.4914 3.95136L20.8618 22.9815L29.1824 0.6003H37.5877Z" fill="white"/>
</svg>
