<svg width="100%" height="100%" viewBox="0 0 28 28" fill="#121113" xmlns="http://www.w3.org/2000/svg">
<path fill-rule="evenodd" clip-rule="evenodd" d="M14 0C6.26801 0 0 6.26801 0 14C0 21.732 6.26801 28 14 28C21.732 28 28 21.732 28 14C28 6.26801 21.732 0 14 0ZM21.3043 6H19.913C18.9353 7.12378 17.9574 8.24757 16.9791 9.37181C16.2879 10.1661 15.5965 10.9606 14.9049 11.7554C14.8923 11.7484 14.8803 11.7432 14.8695 11.7385C14.8505 11.7302 14.8353 11.7236 14.8268 11.7116C13.7707 10.209 12.7157 8.70614 11.6607 7.20315C11.3791 6.8021 11.0976 6.40105 10.8161 6H6.05351C6.28715 6.33495 6.52065 6.67005 6.75416 7.00517C7.31058 7.80371 7.86707 8.60235 8.42569 9.39929C9.23503 10.5531 10.0458 11.7059 10.8566 12.8587C11.2621 13.4354 11.6677 14.012 12.073 14.5888C12.1037 14.6328 12.1333 14.6775 12.165 14.7255C12.1826 14.752 12.2008 14.7796 12.2202 14.8085C12.2093 14.8245 12.1988 14.8408 12.1883 14.857C12.1645 14.8938 12.1409 14.9304 12.1126 14.9628C10.1284 17.2444 8.14368 19.5248 6.15786 21.8047C6.12601 21.8413 6.08802 21.8717 6.05008 21.902C6.03319 21.9155 6.01632 21.929 6 21.9431C6.01122 21.9491 6.0224 21.9567 6.03355 21.9642C6.05802 21.9808 6.0824 21.9973 6.10702 21.9977C6.4495 22.0005 6.79197 22.0003 7.13445 22.0001C7.22007 22 7.30569 22 7.3913 22L7.39416 21.9967C9.20779 19.911 11.0214 17.8252 12.8607 15.7105C13.7491 16.9718 14.6323 18.2255 15.5133 19.476C16.1065 20.3181 16.6988 21.1588 17.291 21.9994H22C21.9828 21.9665 21.9665 21.9328 21.9503 21.8992C21.9146 21.8252 21.879 21.7514 21.833 21.6857C20.0947 19.2099 18.3547 16.7349 16.6149 14.2601C16.2993 13.8111 15.9836 13.362 15.668 12.913C15.6326 12.8631 15.5989 12.8116 15.5625 12.7559C15.5449 12.7291 15.5268 12.7013 15.5074 12.6722C15.6648 12.4912 15.8214 12.311 15.9776 12.1314C16.3331 11.7227 16.686 11.3169 17.0384 10.911C17.7498 10.0919 18.4614 9.27275 19.173 8.45361C19.8835 7.63574 20.594 6.81787 21.3043 6ZM19.9027 20.7775C19.9213 20.807 19.9427 20.8411 19.9687 20.8817C19.7922 20.8817 19.619 20.8822 19.4483 20.8826C18.9099 20.8841 18.3964 20.8854 17.8828 20.872C17.7956 20.8698 17.6934 20.7479 17.6292 20.6568C15.8865 18.1835 14.1465 15.7082 12.4066 13.2329C12.1233 12.8298 11.84 12.4267 11.5567 12.0236C11.0149 11.2527 10.4729 10.4821 9.93085 9.71152C9.38873 8.94078 8.8466 8.17003 8.30475 7.399C8.272 7.35229 8.24095 7.304 8.20501 7.24811C8.184 7.21543 8.16132 7.18015 8.13565 7.14107C8.16817 7.13667 8.19733 7.1317 8.22427 7.12712C8.27403 7.11865 8.31626 7.11146 8.35826 7.11146C8.47007 7.11102 8.5819 7.11035 8.69374 7.10967C9.16158 7.10686 9.62957 7.10405 10.0969 7.11829C10.2087 7.12171 10.3548 7.20028 10.4217 7.2948C13.281 11.3488 16.1341 15.4071 18.9874 19.4658C19.2628 19.8575 19.5381 20.2492 19.8135 20.6409C19.8411 20.6796 19.8665 20.72 19.9027 20.7775Z"/>
</svg>
