<svg width="100%" height="100%" viewBox="0 0 64 64" fill="none" xmlns="http://www.w3.org/2000/svg">
<circle cx="32" cy="32" r="31.2" stroke="white" stroke-width="1.6"/>
<g clip-path="url(#clip0_6746_4041)">
<path d="M49.0065 31.0149C48.7209 37.0514 47.6006 42.0839 45.1284 46.7661C45.0345 46.9443 44.9307 47.1163 44.8289 47.2904C42.2628 51.6407 39.3752 52.9788 34.5405 51.6933C28.7194 50.1447 23.767 47.0698 19.8949 42.343C19.3537 41.6831 18.9303 40.8875 18.6028 40.0899C17.7082 37.9098 18.1555 36.183 19.9648 34.7073C24.9711 30.6303 30.6105 27.9339 36.9509 26.8145C39.5928 26.3489 42.2488 25.9562 44.9007 25.5473C46.4184 25.3145 47.5887 25.8185 48.1178 27.274C48.639 28.6931 48.8308 30.2376 49.0065 31.0149ZM45.9372 31.5939C45.8793 31.0494 45.7934 30.1506 45.6816 29.2538C45.6137 28.7194 45.3261 28.5453 44.7729 28.6384C43.1714 28.9056 41.5638 29.1303 39.9543 29.351C33.4502 30.2457 27.5132 32.5332 22.3252 36.681C21.0751 37.681 20.9353 38.2741 21.7261 39.6709C21.9238 40.0191 22.1454 40.3612 22.405 40.6628C26.0595 44.8856 30.5806 47.6609 35.9823 48.92C38.5025 49.5071 40.4855 48.6892 41.8394 46.422C42.2348 45.7621 42.6542 45.1082 42.9757 44.4119C44.8029 40.4685 45.7694 36.3126 45.9372 31.5939Z" fill="white"/>
<path d="M29.5956 15.0487C31.5206 14.5346 33.238 14.0588 34.9654 13.6216C35.5745 13.4677 36.2035 13.3827 36.8265 13.3159C39.9797 12.9799 42.466 14.1175 43.9677 16.9779C44.9761 18.897 45.739 20.9476 46.6156 22.9375C46.8593 23.4901 46.6895 23.8383 46.1364 24.0225C46.1044 24.0326 46.0745 24.0468 46.0445 24.061C44.2233 24.8525 44.2392 24.8444 43.4964 23.0205C43.0171 21.8423 42.5398 20.6541 41.9607 19.5265C40.6767 17.0265 39.0412 16.1277 36.3193 16.7431C33.7412 17.3261 31.2031 18.1257 28.6989 18.988C26.4124 19.7755 24.1958 20.7715 21.9512 21.6844C21.6437 21.8099 21.3521 21.9739 21.0606 22.1318C17.7936 23.893 17.0227 25.6096 17.9413 29.225C18.2549 30.4598 18.6463 31.6765 19.0676 32.8769C19.3033 33.549 19.2114 33.9113 18.5085 34.1785C16.6213 34.8951 16.5814 34.9376 15.9763 32.972C15.4252 31.1805 14.898 29.3687 14.5465 27.5307C14.0293 24.8262 14.89 22.563 17.0527 20.8464C19.3052 19.0589 21.9612 18.0771 24.5652 16.99C26.9736 15.986 26.5342 16.7107 26.6021 13.9455C26.6181 13.3078 26.6321 12.6681 26.6341 12.0305C26.6381 11.4434 26.9176 11.1863 27.4948 11.2005C29.8212 11.2633 29.6195 11.0203 29.5976 13.2026C29.5896 13.7653 29.5956 14.3281 29.5956 15.0487Z" fill="white"/>
</g>
<defs>
<clipPath id="clip0_6746_4041">
<rect width="34.6033" height="40.96" fill="white" transform="translate(14.4004 11.2)"/>
</clipPath>
</defs>
</svg>
